<?xml version="1.0" standalone="no"?><!-- Generator: Gravit.io --><svg xmlns="http://www.w3.org/2000/svg" xmlns:xlink="http://www.w3.org/1999/xlink" style="isolation:isolate" viewBox="0 0 512 512" width="512" height="512"><g><path d=" M 368.18 223.563 C 447.556 223.563 512 288.185 512 367.782 C 512 447.378 447.556 512 368.18 512 L 368.18 512 C 288.803 512 224.36 447.378 224.36 367.782 C 224.36 345.008 229.635 323.46 239.026 304.301 L 239.026 304.301 L 320.768 304.301 C 301.532 318.776 289.079 341.832 289.079 367.782 C 289.079 411.56 324.523 447.102 368.18 447.102 L 368.18 447.102 C 411.837 447.102 447.281 411.56 447.281 367.782 C 447.281 324.004 411.837 288.461 368.18 288.461 L 368.18 288.437 L 159.64 288.437 L 159.64 223.563 L 368.18 223.563 L 368.18 223.563 Z " fill-rule="evenodd" fill="rgb(55,71,79)"/><path d=" M 287.64 144.218 C 287.64 64.622 223.197 0 143.82 0 L 143.82 0 C 64.444 0 0 64.622 0 144.218 C 0 223.815 64.444 288.437 143.82 288.437 L 143.82 288.437 L 143.82 223.539 L 143.82 223.539 C 100.163 223.539 64.719 187.996 64.719 144.218 C 64.719 100.44 100.163 64.898 143.82 64.898 L 143.82 64.898 C 187.477 64.898 222.921 100.44 222.921 144.218 L 222.921 144.218 L 222.921 208 L 287.64 208 L 287.64 144.218 L 287.64 144.218 Z  M 143.82 288.437 L 143.82 288.437 L 143.82 288.437 Z " fill-rule="evenodd" fill="rgb(0,191,165)"/></g></svg>