<?xml version="1.0" standalone="no"?><!-- Generator: Gravit.io --><svg xmlns="http://www.w3.org/2000/svg" xmlns:xlink="http://www.w3.org/1999/xlink" style="isolation:isolate" viewBox="0 0 64 64" width="64" height="64"><g><path d=" M 64 32 C 64 49.675 49.675 64 32 64 C 14.325 64 0 49.675 0 32 C 0 14.325 14.325 0 32 0 C 49.675 0 64 14.325 64 32 Z " fill="rgb(237,231,246)"/><path d=" M 38.4 43.2 C 38.4 43.2 38.4 49.6 32 49.6 C 32 49.6 25.6 43.2 25.6 43.2" fill="rgb(255,152,0)"/><path d=" M 32 64 C 39.168 64 45.768 61.613 51.101 57.632 C 50.112 45.525 38 43.2 38 43.2 L 32 44.432 L 26 43.2 C 26 43.2 13.888 45.482 12.894 57.632 C 18.232 61.613 24.83 64 32 64 Z " fill="rgb(103,58,183)"/><path d=" M 32 52.8 C 36.836 52.797 40.915 49.198 41.52 44.4 C 40.51 43.94 39.462 43.57 38.387 43.294 C 38.385 46.822 35.524 49.68 31.997 49.678 C 28.469 49.677 25.611 46.816 25.613 43.288 C 24.539 43.562 23.491 43.93 22.482 44.387 C 23.079 49.19 27.16 52.797 32 52.8 Z " fill="rgb(49,27,146)"/><path d=" M 44.8 29.6 C 44.8 30.925 43.725 32 42.4 32 C 41.075 32 40 30.925 40 29.6 C 40 28.275 41.075 27.2 42.4 27.2 C 43.725 27.2 44.8 28.275 44.8 29.6 Z  M 24 29.6 C 24 28.275 22.925 27.2 21.6 27.2 C 20.275 27.2 19.2 28.275 19.2 29.6 C 19.2 30.925 20.275 32 21.6 32 C 22.925 32 24 30.925 24 29.6 Z  M 38.4 43.2 L 38.4 36.8 L 25.6 36.8 L 25.6 43.2 C 25.6 43.2 25.6 49.6 32 49.6 C 32 49.6 38.4 43.2 38.4 43.2 Z " fill="rgb(239,141,60)"/><path d=" M 43.2 23.488 C 43.2 14.08 20.8 17.363 20.8 23.488 L 20.8 30.512 C 20.8 36.632 25.813 41.6 32 41.6 C 38.187 41.6 43.2 36.632 43.2 30.512 L 43.2 23.488 Z " fill="rgb(255,170,69)"/><path d=" M 32 11.2 C 24.224 11.2 19.2 18.101 19.2 24.275 L 19.2 27.2 L 22.4 30.4 L 22.4 24 L 37.12 19.2 L 41.6 24 L 41.6 30.4 L 44.8 27.2 L 44.8 25.906 C 44.8 20.757 43.469 15.019 37.12 13.757 L 35.835 11.2 L 32 11.2 Z " fill="rgb(121,85,72)"/><path d=" M 35.2 28.8 C 35.2 27.92 35.92 27.2 36.8 27.2 C 37.68 27.2 38.4 27.92 38.4 28.8 C 38.4 29.68 37.68 30.4 36.8 30.4 C 35.92 30.4 35.2 29.68 35.2 28.8 Z  M 25.6 28.8 C 25.6 29.68 26.32 30.4 27.2 30.4 C 28.08 30.4 28.8 29.68 28.8 28.8 C 28.8 27.92 28.08 27.2 27.2 27.2 C 26.32 27.2 25.6 27.92 25.6 28.8 Z " fill="rgb(120,71,25)"/></g></svg>