<?xml version="1.0" standalone="no"?><!-- Generator: Gravit.io --><svg xmlns="http://www.w3.org/2000/svg" xmlns:xlink="http://www.w3.org/1999/xlink" style="isolation:isolate" viewBox="112.5 67.5 150 151" width="150" height="151"><g><circle vector-effect="non-scaling-stroke" cx="187.5" cy="142.4999999999999" r="75" fill="rgb(255,255,255)"/><g><path d=" M 202.5 169.75 C 202.5 169.75 202.5 184.75 187.5 184.75 C 187.5 184.75 172.5 169.75 172.5 169.75" fill="rgb(255,152,0)"/><path d=" M 187.5 218.5 C 204.3 218.5 219.769 212.905 232.268 203.575 C 229.95 175.199 201.563 169.75 201.563 169.75 L 187.5 172.637 L 173.438 169.75 C 173.438 169.75 145.05 175.097 142.721 203.575 C 155.231 212.905 170.696 218.5 187.5 218.5 Z " fill="rgb(103,58,183)"/><path d=" M 187.5 192.25 C 198.834 192.243 208.394 183.808 209.813 172.562 C 207.446 171.484 204.989 170.617 202.47 169.971 C 202.466 178.239 195.76 184.938 187.492 184.934 C 179.225 184.93 172.526 178.224 172.53 169.956 C 170.013 170.598 167.557 171.46 165.191 172.532 C 166.592 183.79 176.156 192.242 187.5 192.25 Z " fill="rgb(49,27,146)"/><path d=" M 217.5 137.875 C 217.5 140.982 214.982 143.5 211.875 143.5 C 208.768 143.5 206.25 140.982 206.25 137.875 C 206.25 134.768 208.768 132.25 211.875 132.25 C 214.982 132.25 217.5 134.768 217.5 137.875 Z  M 168.75 137.875 C 168.75 134.768 166.232 132.25 163.125 132.25 C 160.018 132.25 157.5 134.768 157.5 137.875 C 157.5 140.982 160.018 143.5 163.125 143.5 C 166.232 143.5 168.75 140.982 168.75 137.875 Z  M 202.5 169.75 L 202.5 154.75 L 172.5 154.75 L 172.5 169.75 C 172.5 169.75 172.5 184.75 187.5 184.75 C 187.5 184.75 202.5 169.75 202.5 169.75 Z " fill="rgb(255,171,64)"/><path d=" M 213.75 123.55 C 213.75 101.5 161.25 109.195 161.25 123.55 L 161.25 140.012 C 161.25 154.356 172.999 166 187.5 166 C 202.001 166 213.75 154.356 213.75 140.012 L 213.75 123.55 Z " fill="rgb(255,204,128)"/><path d=" M 187.5 94.75 C 169.275 94.75 157.5 110.924 157.5 125.395 L 157.5 132.25 L 165 139.75 L 165 124.75 L 199.5 113.5 L 210 124.75 L 210 139.75 L 217.5 132.25 L 217.5 129.216 C 217.5 117.149 214.38 103.701 199.5 100.742 L 196.489 94.75 L 187.5 94.75 Z " fill="rgb(255,87,34)"/><path d=" M 195 136 C 195 133.937 196.688 132.25 198.75 132.25 C 200.813 132.25 202.5 133.937 202.5 136 C 202.5 138.062 200.813 139.75 198.75 139.75 C 196.688 139.75 195 138.062 195 136 Z  M 172.5 136 C 172.5 138.062 174.188 139.75 176.25 139.75 C 178.313 139.75 180 138.062 180 136 C 180 133.937 178.313 132.25 176.25 132.25 C 174.188 132.25 172.5 133.937 172.5 136 Z " fill="rgb(120,71,25)"/></g></g></svg>