<?xml version="1.0" standalone="no"?><!-- Generator: Gravit.io --><svg xmlns="http://www.w3.org/2000/svg" xmlns:xlink="http://www.w3.org/1999/xlink" style="isolation:isolate" viewBox="2.188 10 32 32" width="32" height="32"><g><rect x="2.188" y="10" width="32" height="32" transform="matrix(1,0,0,1,0,0)" fill="none"/><path d=" M 28.331 10.001 C 28.066 10.004 27.814 10.086 27.632 10.23 L 7.291 25.46 C 6.894 25.757 6.894 26.239 7.291 26.536 L 27.632 41.766 C 27.886 41.966 28.267 42.046 28.621 41.974 C 28.978 41.906 29.256 41.697 29.348 41.43 C 29.443 41.164 29.336 40.88 29.07 40.69 L 9.448 25.998 L 29.07 11.307 C 29.37 11.088 29.46 10.754 29.297 10.465 C 29.137 10.174 28.751 9.988 28.331 10.001 Z " fill="rgb(255,255,255)"/></g></svg>