<?xml version="1.0" standalone="no"?><!-- Generator: Gravit.io --><svg xmlns="http://www.w3.org/2000/svg" xmlns:xlink="http://www.w3.org/1999/xlink" style="isolation:isolate" viewBox="0 0 375 812" width="375" height="812"><g filter="url(#PYpkl61RLMMilK3fNqED1mGBtpJPQjZT)"><rect x="0" y="0" width="375" height="812" transform="matrix(1,0,0,1,0,0)" fill="rgb(255,255,255)"/><linearGradient id="_lgradient_0" x1="0.525252525252525" y1="0.33773697566801" x2="0.5252525252525251" y2="1.3341543513957304" gradientTransform="matrix(375,0,0,812,0,0)" gradientUnits="userSpaceOnUse"><stop offset="0%" stop-opacity="1" style="stop-color:rgb(55,71,79)"/><stop offset="100%" stop-opacity="1" style="stop-color:rgb(0,0,0)"/></linearGradient><path d=" M 0 379 L 375 0 L 375 812 L 0 812 L 0 379 Z " fill="url(#_lgradient_0)"/><g><path d=" M 183.753 201.166 C 176.665 211.93 172.537 224.824 172.537 238.677 C 172.537 276.318 203.013 306.879 240.551 306.879 L 240.551 306.879 C 278.088 306.879 308.564 276.318 308.564 238.677 C 308.564 201.035 278.088 170.475 240.551 170.475 C 240.127 170.475 239.704 170.479 239.282 170.486 L 141.931 170.486 L 141.931 201.166 L 183.753 201.166 Z  M 240.551 276.188 C 219.905 276.188 203.143 259.38 203.143 238.677 C 203.143 217.974 219.905 201.166 240.551 201.166 L 240.551 201.166 C 261.196 201.166 277.958 217.974 277.958 238.677 C 277.958 259.38 261.196 276.188 240.551 276.188 L 240.551 276.188 Z " fill-rule="evenodd" fill="rgb(0,191,165)"/><path d=" M 202.463 132.952 C 202.463 95.31 171.987 64.75 134.449 64.75 L 134.449 64.75 C 96.912 64.75 66.436 95.31 66.436 132.952 C 66.436 170.594 96.912 201.154 134.449 201.154 L 134.449 201.154 L 134.449 170.463 L 134.449 170.463 C 113.804 170.463 97.042 153.655 97.042 132.952 C 97.042 112.249 113.804 95.441 134.449 95.441 L 134.449 95.441 C 155.095 95.441 171.857 112.249 171.857 132.952 L 171.857 132.952 L 171.857 163.115 L 202.463 163.115 L 202.463 132.952 L 202.463 132.952 Z  M 134.449 201.154 L 134.449 201.154 L 134.449 201.154 Z " fill-rule="evenodd" fill="rgb(55,71,79)"/><path d=" M 204.583 180.832 L 204.583 184.858 L 205.529 184.858 L 205.529 184.858 Q 206.856 184.858 207.515 184.334 L 207.515 184.334 L 207.515 184.334 Q 208.173 183.81 208.173 182.808 L 208.173 182.808 L 208.173 182.808 Q 208.173 181.796 207.621 181.314 L 207.621 181.314 L 207.621 181.314 Q 207.069 180.832 205.891 180.832 L 205.891 180.832 L 204.583 180.832 L 204.583 180.832 Z  M 211.077 182.706 L 211.077 182.706 L 211.077 182.706 Q 211.077 184.895 209.709 186.055 L 209.709 186.055 L 209.709 186.055 Q 208.34 187.214 205.817 187.214 L 205.817 187.214 L 204.583 187.214 L 204.583 192.039 L 201.707 192.039 L 201.707 178.475 L 206.04 178.475 L 206.04 178.475 Q 208.507 178.475 209.792 179.537 L 209.792 179.537 L 209.792 179.537 Q 211.077 180.6 211.077 182.706 Z  M 221.978 192.039 L 220.002 192.039 L 219.455 190.628 L 219.38 190.628 L 219.38 190.628 Q 218.666 191.528 217.91 191.876 L 217.91 191.876 L 217.91 191.876 Q 217.154 192.224 215.938 192.224 L 215.938 192.224 L 215.938 192.224 Q 214.445 192.224 213.587 191.371 L 213.587 191.371 L 213.587 191.371 Q 212.729 190.517 212.729 188.94 L 212.729 188.94 L 212.729 188.94 Q 212.729 187.289 213.884 186.505 L 213.884 186.505 L 213.884 186.505 Q 215.039 185.721 217.367 185.637 L 217.367 185.637 L 219.167 185.582 L 219.167 185.127 L 219.167 185.127 Q 219.167 183.55 217.553 183.55 L 217.553 183.55 L 217.553 183.55 Q 216.31 183.55 214.63 184.301 L 214.63 184.301 L 213.693 182.39 L 213.693 182.39 Q 215.484 181.453 217.664 181.453 L 217.664 181.453 L 217.664 181.453 Q 219.751 181.453 220.865 182.362 L 220.865 182.362 L 220.865 182.362 Q 221.978 183.272 221.978 185.127 L 221.978 185.127 L 221.978 192.039 L 221.978 192.039 Z  M 219.167 188.086 L 219.167 187.233 L 218.072 187.27 L 218.072 187.27 Q 216.838 187.307 216.235 187.715 L 216.235 187.715 L 216.235 187.715 Q 215.632 188.124 215.632 188.959 L 215.632 188.959 L 215.632 188.959 Q 215.632 190.155 217.005 190.155 L 217.005 190.155 L 217.005 190.155 Q 217.989 190.155 218.578 189.589 L 218.578 189.589 L 218.578 189.589 Q 219.167 189.024 219.167 188.086 L 219.167 188.086 L 219.167 188.086 Z  M 227.526 191.964 L 223.407 181.667 L 226.505 181.667 L 228.463 187.502 L 228.463 187.502 Q 228.713 188.263 228.806 189.302 L 228.806 189.302 L 228.862 189.302 L 228.862 189.302 Q 228.964 188.346 229.261 187.502 L 229.261 187.502 L 231.181 181.667 L 234.215 181.667 L 229.827 193.365 L 229.827 193.365 Q 229.224 194.989 228.106 195.796 L 228.106 195.796 L 228.106 195.796 Q 226.988 196.603 225.494 196.603 L 225.494 196.603 L 225.494 196.603 Q 224.761 196.603 224.056 196.445 L 224.056 196.445 L 224.056 194.2 L 224.056 194.2 Q 224.566 194.321 225.169 194.321 L 225.169 194.321 L 225.169 194.321 Q 225.921 194.321 226.482 193.862 L 226.482 193.862 L 226.482 193.862 Q 227.043 193.402 227.359 192.475 L 227.359 192.475 L 227.526 191.964 L 227.526 191.964 Z " fill="rgb(255,255,255)"/><path d=" M 160.799 193.107 L 157.537 193.107 L 156.502 189.709 L 151.297 189.709 L 150.262 193.107 L 147 193.107 L 152.039 178.772 L 155.74 178.772 L 160.799 193.107 L 160.799 193.107 Z  M 152.059 187.17 L 155.779 187.17 L 155.779 187.17 Q 154.344 182.551 154.163 181.945 L 154.163 181.945 L 154.163 181.945 Q 153.982 181.34 153.904 180.988 L 153.904 180.988 L 153.904 180.988 Q 153.582 182.238 152.059 187.17 L 152.059 187.17 L 152.059 187.17 Z  M 168.055 182.19 L 171.863 182.19 L 171.863 183.703 L 170.154 184.143 L 170.154 184.143 Q 170.623 184.875 170.623 185.783 L 170.623 185.783 L 170.623 185.783 Q 170.623 187.541 169.397 188.523 L 169.397 188.523 L 169.397 188.523 Q 168.172 189.504 165.994 189.504 L 165.994 189.504 L 165.457 189.475 L 165.018 189.426 L 165.018 189.426 Q 164.559 189.777 164.559 190.207 L 164.559 190.207 L 164.559 190.207 Q 164.559 190.852 166.199 190.852 L 166.199 190.852 L 168.055 190.852 L 168.055 190.852 Q 169.852 190.852 170.794 191.623 L 170.794 191.623 L 170.794 191.623 Q 171.736 192.395 171.736 193.889 L 171.736 193.889 L 171.736 193.889 Q 171.736 195.803 170.14 196.857 L 170.14 196.857 L 170.14 196.857 Q 168.543 197.912 165.555 197.912 L 165.555 197.912 L 165.555 197.912 Q 163.27 197.912 162.063 197.116 L 162.063 197.116 L 162.063 197.116 Q 160.857 196.32 160.857 194.885 L 160.857 194.885 L 160.857 194.885 Q 160.857 193.899 161.473 193.234 L 161.473 193.234 L 161.473 193.234 Q 162.088 192.57 163.279 192.287 L 163.279 192.287 L 163.279 192.287 Q 162.82 192.092 162.479 191.648 L 162.479 191.648 L 162.479 191.648 Q 162.137 191.203 162.137 190.705 L 162.137 190.705 L 162.137 190.705 Q 162.137 190.08 162.498 189.665 L 162.498 189.665 L 162.498 189.665 Q 162.859 189.25 163.543 188.85 L 163.543 188.85 L 163.543 188.85 Q 162.684 188.479 162.181 187.658 L 162.181 187.658 L 162.181 187.658 Q 161.678 186.838 161.678 185.725 L 161.678 185.725 L 161.678 185.725 Q 161.678 183.938 162.84 182.961 L 162.84 182.961 L 162.84 182.961 Q 164.002 181.984 166.16 181.984 L 166.16 181.984 L 166.16 181.984 Q 166.619 181.984 167.249 182.067 L 167.249 182.067 L 167.249 182.067 Q 167.879 182.15 168.055 182.19 L 168.055 182.19 L 168.055 182.19 Z  M 163.436 194.65 L 163.436 194.65 L 163.436 194.65 Q 163.436 195.266 164.026 195.617 L 164.026 195.617 L 164.026 195.617 Q 164.617 195.969 165.682 195.969 L 165.682 195.969 L 165.682 195.969 Q 167.283 195.969 168.191 195.529 L 168.191 195.529 L 168.191 195.529 Q 169.1 195.09 169.1 194.328 L 169.1 194.328 L 169.1 194.328 Q 169.1 193.713 168.563 193.479 L 168.563 193.479 L 168.563 193.479 Q 168.025 193.244 166.902 193.244 L 166.902 193.244 L 165.359 193.244 L 165.359 193.244 Q 164.539 193.244 163.987 193.63 L 163.987 193.63 L 163.987 193.63 Q 163.436 194.016 163.436 194.65 Z  M 164.52 185.764 L 164.52 185.764 L 164.52 185.764 Q 164.52 186.652 164.925 187.17 L 164.925 187.17 L 164.925 187.17 Q 165.33 187.688 166.16 187.688 L 166.16 187.688 L 166.16 187.688 Q 167 187.688 167.391 187.17 L 167.391 187.17 L 167.391 187.17 Q 167.781 186.652 167.781 185.764 L 167.781 185.764 L 167.781 185.764 Q 167.781 183.791 166.16 183.791 L 166.16 183.791 L 166.16 183.791 Q 164.52 183.791 164.52 185.764 Z  M 173.533 179.367 L 173.533 179.367 L 173.533 179.367 Q 173.533 177.912 175.154 177.912 L 175.154 177.912 L 175.154 177.912 Q 176.775 177.912 176.775 179.367 L 176.775 179.367 L 176.775 179.367 Q 176.775 180.061 176.37 180.446 L 176.37 180.446 L 176.37 180.446 Q 175.965 180.832 175.154 180.832 L 175.154 180.832 L 175.154 180.832 Q 173.533 180.832 173.533 179.367 Z  M 176.639 182.19 L 176.639 193.107 L 173.66 193.107 L 173.66 182.19 L 176.639 182.19 L 176.639 182.19 Z  M 182.742 177.912 L 182.742 193.107 L 179.764 193.107 L 179.764 177.912 L 182.742 177.912 L 182.742 177.912 Z  M 190.389 184.104 L 190.389 184.104 L 190.389 184.104 Q 189.441 184.104 188.904 184.704 L 188.904 184.704 L 188.904 184.704 Q 188.367 185.305 188.289 186.408 L 188.289 186.408 L 192.469 186.408 L 192.469 186.408 Q 192.449 185.305 191.893 184.704 L 191.893 184.704 L 191.893 184.704 Q 191.336 184.104 190.389 184.104 Z  M 190.809 193.303 L 190.809 193.303 L 190.809 193.303 Q 188.172 193.303 186.688 191.848 L 186.688 191.848 L 186.688 191.848 Q 185.203 190.393 185.203 187.727 L 185.203 187.727 L 185.203 187.727 Q 185.203 184.982 186.575 183.483 L 186.575 183.483 L 186.575 183.483 Q 187.947 181.984 190.369 181.984 L 190.369 181.984 L 190.369 181.984 Q 192.684 181.984 193.973 183.303 L 193.973 183.303 L 193.973 183.303 Q 195.262 184.621 195.262 186.945 L 195.262 186.945 L 195.262 188.391 L 188.221 188.391 L 188.221 188.391 Q 188.27 189.66 188.973 190.373 L 188.973 190.373 L 188.973 190.373 Q 189.676 191.086 190.945 191.086 L 190.945 191.086 L 190.945 191.086 Q 191.932 191.086 192.811 190.881 L 192.811 190.881 L 192.811 190.881 Q 193.689 190.676 194.646 190.227 L 194.646 190.227 L 194.646 192.531 L 194.646 192.531 Q 193.865 192.922 192.977 193.112 L 192.977 193.112 L 192.977 193.112 Q 192.088 193.303 190.809 193.303 Z " fill="rgb(55,71,79)"/></g></g><defs><filter id="PYpkl61RLMMilK3fNqED1mGBtpJPQjZT" x="-200%" y="-200%" width="400%" height="400%" filterUnits="objectBoundingBox" color-interpolation-filters="sRGB"><feGaussianBlur xmlns="http://www.w3.org/2000/svg" in="SourceGraphic" stdDeviation="2.146804531419514"/><feOffset xmlns="http://www.w3.org/2000/svg" dx="0" dy="0" result="pf_100_offsetBlur"/><feFlood xmlns="http://www.w3.org/2000/svg" flood-color="#000000" flood-opacity="0.65"/><feComposite xmlns="http://www.w3.org/2000/svg" in2="pf_100_offsetBlur" operator="in" result="pf_100_dropShadow"/><feBlend xmlns="http://www.w3.org/2000/svg" in="SourceGraphic" in2="pf_100_dropShadow" mode="normal"/></filter></defs></svg>