<?xml version="1.0" standalone="no"?><!-- Generator: Gravit.io --><svg xmlns="http://www.w3.org/2000/svg" xmlns:xlink="http://www.w3.org/1999/xlink" style="isolation:isolate" viewBox="124.5 71.25 128 128" width="128" height="128"><g><rect x="124.5" y="71.25" width="128" height="128" transform="matrix(1,0,0,1,0,0)" fill="none"/><path d=" M 187.502 71.25 C 173.984 71.25 162.887 82.347 162.887 95.865 L 162.887 100.788 L 138.577 100.788 L 138.272 105.406 L 133.349 194.022 L 133.038 199.25 L 241.962 199.25 L 241.656 194.017 L 236.733 105.401 L 236.423 100.788 L 212.118 100.788 L 212.118 95.865 C 212.118 82.347 201.021 71.25 187.502 71.25 Z  M 187.502 81.096 C 195.659 81.096 202.272 87.709 202.272 95.865 L 202.272 100.788 L 172.733 100.788 L 172.733 95.865 C 172.733 87.709 179.346 81.096 187.502 81.096 Z  M 147.808 110.635 L 162.887 110.635 L 162.887 125.404 L 172.733 125.404 L 172.733 110.635 L 202.272 110.635 L 202.272 125.404 L 212.118 125.404 L 212.118 110.635 L 227.197 110.635 L 231.505 189.404 L 143.505 189.404 L 147.808 110.635 Z " fill="rgb(255,255,255)"/></g></svg>