<?xml version="1.0" standalone="no"?><!-- Generator: Gravit.io --><svg xmlns="http://www.w3.org/2000/svg" xmlns:xlink="http://www.w3.org/1999/xlink" style="isolation:isolate" viewBox="0 0 64 64" width="64" height="64"><g opacity="0.5"><path d=" M 31.996 0 C 29.783 -0.01 27.967 1.748 27.906 3.96 L 27.859 5.531 C 26.995 4.556 25.755 3.999 24.453 4 C 21.984 3.987 19.963 5.961 19.918 8.43 L 19.781 14 L 5 14 C 3.348 14 2 15.348 2 17 L 2 45 C 2 46.652 3.348 48 5 48 L 11.3 48 C 12.007 49.534 12.898 50.977 13.953 52.297 L 18.153 57.543 L 20.551 62.343 C 21.058 63.36 22.098 64.002 23.234 64 L 47.52 64 C 48.848 64 50 63.148 50.39 61.883 L 52.91 53.687 C 53.47 51.842 53.769 49.928 53.8 48 L 59 48 C 60.652 48 62 46.652 62 45 L 62 17 C 62 15.348 60.652 14 59 14 L 51.863 14 C 51.219 12.246 49.559 11 47.59 11 C 46.254 11 45.05 11.574 44.21 12.484 L 44.098 8.422 C 44.04 5.954 42.016 3.987 39.547 4 C 38.195 4 36.977 4.598 36.141 5.54 L 36.094 3.96 C 36.03 1.746 34.211 -0.012 31.996 0 Z  M 32.004 2 C 33.135 1.994 34.063 2.893 34.094 4.023 L 34.402 14 L 29.598 14 L 29.906 4.023 C 29.939 2.89 30.871 1.991 32.004 2 L 32.004 2 Z  M 24.46 6 C 25.859 6 27 7.14 27 8.54 L 27 14 L 21.781 14 L 21.918 8.477 C 21.949 7.113 23.09 6 24.461 6 L 24.46 6 Z  M 39.546 6 C 40.936 6 42.058 7.09 42.096 8.477 L 42.25 14 L 37 14 L 37 8.547 C 37.003 7.142 38.141 6.003 39.547 6 L 39.546 6 Z  M 47.593 13 C 48.417 13 49.151 13.395 49.624 14 L 45.561 14 C 46.048 13.371 46.798 13.002 47.593 13 Z  M 5 16 L 59 16 C 59.55 16 60 16.45 60 17 L 60 45 C 60 45.55 59.55 46 59 46 L 29.645 46 C 27.594 45.998 25.605 45.292 24.012 44 C 24.56 43.993 25 43.548 25 43 L 25 41 C 25 40.445 24.555 40 24 40 C 23.445 40 23 40.445 23 41 L 23 43 C 23 43.02 23.012 43.04 23.012 43.059 C 22.291 42.278 21.714 41.374 21.309 40.391 L 18.547 33.609 C 17.416 30.802 15.049 28.677 12.137 27.855 C 11.176 27.579 10.141 27.801 9.376 28.445 C 8.612 29.089 8.219 30.072 8.328 31.066 L 9.468 41.453 C 9.637 43.002 9.98 44.527 10.489 46 L 5 46 C 4.45 46 4 45.55 4 45 L 4 17 C 4 16.45 4.45 16 5 16 Z  M 19 18 C 18.445 18 18 18.445 18 19 L 18 21 C 18 21.555 18.445 22 19 22 C 19.555 22 20 21.555 20 21 L 20 19 C 20 18.445 19.555 18 19 18 Z  M 24 18 C 23.445 18 23 18.445 23 19 L 23 21 C 23 21.555 23.445 22 24 22 C 24.555 22 25 21.555 25 21 L 25 19 C 25 18.445 24.555 18 24 18 Z  M 29 18 C 28.445 18 28 18.445 28 19 L 28 21 C 28 21.05 28.023 21.094 28.031 21.145 C 25.055 22.94 23 26.68 23 31 C 23 35.32 25.055 39.059 28.031 40.855 C 28.023 40.906 28 40.949 28 41 L 28 43 C 28 43.555 28.445 44 29 44 C 29.555 44 30 43.555 30 43 L 30 41.719 C 30.651 41.901 31.324 41.996 32 42 C 32.688 42 33.355 41.895 34 41.719 L 34 43 C 34 43.555 34.445 44 35 44 C 35.555 44 36 43.555 36 43 L 36 41 C 36 40.95 35.977 40.906 35.969 40.855 C 38.945 39.06 41 35.32 41 31 C 41 26.68 38.945 22.941 35.969 21.145 C 35.977 21.094 36 21.051 36 21 L 36 19 C 36 18.445 35.555 18 35 18 C 34.445 18 34 18.445 34 19 L 34 20.281 C 33.349 20.099 32.676 20.004 32 20 C 31.312 20 30.645 20.105 30 20.281 L 30 19 C 30 18.445 29.555 18 29 18 Z  M 40 18 C 39.445 18 39 18.445 39 19 L 39 21 C 39 21.555 39.445 22 40 22 C 40.555 22 41 21.555 41 21 L 41 19 C 41 18.445 40.555 18 40 18 Z  M 45 18 C 44.445 18 44 18.445 44 19 L 44 21 C 44 21.555 44.445 22 45 22 C 45.555 22 46 21.555 46 21 L 46 19 C 46 18.445 45.555 18 45 18 Z  M 7 19 C 6.445 19 6 19.445 6 20 C 6 20.555 6.445 21 7 21 L 12 21 C 12.555 21 13 20.555 13 20 C 13 19.445 12.555 19 12 19 L 7 19 Z  M 52 19 C 51.445 19 51 19.445 51 20 C 51 20.555 51.445 21 52 21 L 57 21 C 57.555 21 58 20.555 58 20 C 58 19.445 57.555 19 57 19 L 52 19 Z  M 32 22 C 35.86 22 39 26.035 39 31 C 39 35.965 35.86 40 32 40 C 28.14 40 25 35.965 25 31 C 25 26.035 28.14 22 32 22 Z  M 50 27 C 47.793 27 46 28.793 46 31 C 46 33.207 47.793 35 50 35 C 52.207 35 54 33.207 54 31 C 54 28.793 52.207 27 50 27 Z  M 50 28.668 C 51.287 28.67 52.33 29.713 52.332 31 C 52.33 32.287 51.287 33.33 50 33.332 C 48.713 33.33 47.67 32.287 47.668 31 C 47.67 29.713 48.713 28.67 50 28.668 L 50 28.668 Z  M 11.344 29.738 C 11.428 29.741 11.51 29.756 11.59 29.781 C 13.909 30.437 15.794 32.128 16.695 34.363 L 19.453 41.145 C 21.131 45.298 25.166 48.012 29.645 48 L 51.809 48 C 51.774 49.728 51.502 51.444 51 53.098 L 48.48 61.293 C 48.35 61.714 47.961 62.001 47.52 62 L 23.234 62 C 22.857 62.001 22.511 61.788 22.344 61.45 L 19.894 56.55 C 19.879 56.52 19.848 56.5 19.828 56.469 C 19.808 56.437 19.801 56.402 19.781 56.375 L 15.511 51.047 C 14.477 49.75 13.671 48.266 12.761 46.375 C 12.087 44.731 11.646 43.001 11.453 41.235 L 10.316 30.848 C 10.28 30.517 10.412 30.19 10.668 29.977 C 10.856 29.816 11.097 29.73 11.344 29.738 Z  M 40 40 C 39.445 40 39 40.445 39 41 L 39 43 C 39 43.555 39.445 44 40 44 C 40.555 44 41 43.555 41 43 L 41 41 C 41 40.445 40.555 40 40 40 Z  M 45 40 C 44.445 40 44 40.445 44 41 L 44 43 C 44 43.555 44.445 44 45 44 C 45.555 44 46 43.555 46 43 L 46 41 C 46 40.445 45.555 40 45 40 Z  M 52 41 C 51.445 41 51 41.445 51 42 C 51 42.555 51.445 43 52 43 L 57 43 C 57.555 43 58 42.555 58 42 C 58 41.445 57.555 41 57 41 L 52 41 Z " fill="rgb(255,255,255)"/></g></svg>