<?xml version="1.0" standalone="no"?><!-- Generator: Gravit.io --><svg xmlns="http://www.w3.org/2000/svg" xmlns:xlink="http://www.w3.org/1999/xlink" style="isolation:isolate" viewBox="20.269 477.293 44.133 47.075" width="44.133" height="47.075"><g opacity="0.5"><path d=" M 42.333 477.293 C 40.705 477.285 39.37 478.579 39.325 480.206 L 39.29 481.361 C 38.655 480.644 37.743 480.234 36.785 480.235 C 34.969 480.225 33.482 481.678 33.449 483.494 L 33.348 487.591 L 22.476 487.591 C 21.261 487.591 20.269 488.582 20.269 489.797 L 20.269 510.392 C 20.269 511.608 21.261 512.599 22.476 512.599 L 27.11 512.599 C 27.63 513.728 28.286 514.789 29.061 515.76 L 32.151 519.618 L 33.915 523.149 C 34.288 523.897 35.052 524.369 35.888 524.368 L 53.752 524.368 C 54.728 524.368 55.576 523.741 55.863 522.811 L 57.716 516.782 C 58.128 515.425 58.348 514.017 58.371 512.599 L 62.196 512.599 C 63.411 512.599 64.402 511.608 64.402 510.392 L 64.402 489.797 C 64.402 488.582 63.411 487.591 62.196 487.591 L 56.946 487.591 C 56.472 486.3 55.251 485.384 53.803 485.384 C 52.82 485.384 51.935 485.806 51.317 486.475 L 51.235 483.488 C 51.192 481.672 49.703 480.226 47.887 480.235 C 46.893 480.235 45.997 480.675 45.382 481.368 L 45.347 480.206 C 45.3 478.577 43.962 477.284 42.333 477.293 Z  M 42.339 478.764 C 43.171 478.76 43.853 479.421 43.876 480.252 L 44.103 487.591 L 40.569 487.591 L 40.796 480.252 C 40.82 479.419 41.505 478.758 42.339 478.764 L 42.339 478.764 Z  M 36.79 481.706 C 37.819 481.706 38.658 482.545 38.658 483.574 L 38.658 487.591 L 34.819 487.591 L 34.92 483.528 C 34.943 482.525 35.782 481.706 36.791 481.706 L 36.79 481.706 Z  M 47.886 481.706 C 48.909 481.706 49.734 482.508 49.762 483.528 L 49.875 487.591 L 46.014 487.591 L 46.014 483.58 C 46.016 482.546 46.853 481.708 47.887 481.706 L 47.886 481.706 Z  M 53.805 486.855 C 54.411 486.855 54.951 487.145 55.299 487.591 L 52.311 487.591 C 52.669 487.128 53.22 486.857 53.805 486.855 Z  M 22.476 489.062 L 62.196 489.062 C 62.6 489.062 62.931 489.393 62.931 489.797 L 62.931 510.392 C 62.931 510.797 62.6 511.128 62.196 511.128 L 40.604 511.128 C 39.095 511.126 37.632 510.607 36.46 509.657 C 36.863 509.652 37.187 509.324 37.187 508.921 L 37.187 507.45 C 37.187 507.042 36.86 506.715 36.451 506.715 C 36.043 506.715 35.716 507.042 35.716 507.45 L 35.716 508.921 C 35.716 508.936 35.725 508.951 35.725 508.965 C 35.194 508.39 34.77 507.726 34.472 507.002 L 32.441 502.014 C 31.609 499.949 29.868 498.386 27.726 497.782 C 27.019 497.579 26.257 497.742 25.695 498.216 C 25.133 498.689 24.844 499.412 24.924 500.143 L 25.763 507.783 C 25.887 508.923 26.139 510.045 26.514 511.128 L 22.476 511.128 C 22.072 511.128 21.741 510.797 21.741 510.392 L 21.741 489.797 C 21.741 489.393 22.072 489.062 22.476 489.062 Z  M 32.774 490.533 C 32.366 490.533 32.038 490.86 32.038 491.268 L 32.038 492.739 C 32.038 493.148 32.366 493.475 32.774 493.475 C 33.182 493.475 33.509 493.148 33.509 492.739 L 33.509 491.268 C 33.509 490.86 33.182 490.533 32.774 490.533 Z  M 36.451 490.533 C 36.043 490.533 35.716 490.86 35.716 491.268 L 35.716 492.739 C 35.716 493.148 36.043 493.475 36.451 493.475 C 36.86 493.475 37.187 493.148 37.187 492.739 L 37.187 491.268 C 37.187 490.86 36.86 490.533 36.451 490.533 Z  M 40.129 490.533 C 39.721 490.533 39.394 490.86 39.394 491.268 L 39.394 492.739 C 39.394 492.776 39.411 492.808 39.416 492.846 C 37.227 494.166 35.716 496.917 35.716 500.095 C 35.716 503.272 37.227 506.023 39.416 507.344 C 39.411 507.381 39.394 507.413 39.394 507.45 L 39.394 508.921 C 39.394 509.33 39.721 509.657 40.129 509.657 C 40.537 509.657 40.865 509.33 40.865 508.921 L 40.865 507.979 C 41.344 508.113 41.838 508.183 42.336 508.186 C 42.842 508.186 43.333 508.109 43.807 507.979 L 43.807 508.921 C 43.807 509.33 44.134 509.657 44.543 509.657 C 44.951 509.657 45.278 509.33 45.278 508.921 L 45.278 507.45 C 45.278 507.413 45.261 507.381 45.255 507.344 C 47.444 506.023 48.956 503.272 48.956 500.095 C 48.956 496.917 47.444 494.167 45.255 492.846 C 45.261 492.808 45.278 492.777 45.278 492.739 L 45.278 491.268 C 45.278 490.86 44.951 490.533 44.543 490.533 C 44.134 490.533 43.807 490.86 43.807 491.268 L 43.807 492.21 C 43.328 492.076 42.833 492.007 42.336 492.004 C 41.83 492.004 41.339 492.081 40.865 492.21 L 40.865 491.268 C 40.865 490.86 40.537 490.533 40.129 490.533 Z  M 48.22 490.533 C 47.812 490.533 47.485 490.86 47.485 491.268 L 47.485 492.739 C 47.485 493.148 47.812 493.475 48.22 493.475 C 48.628 493.475 48.956 493.148 48.956 492.739 L 48.956 491.268 C 48.956 490.86 48.628 490.533 48.22 490.533 Z  M 51.898 490.533 C 51.49 490.533 51.162 490.86 51.162 491.268 L 51.162 492.739 C 51.162 493.148 51.49 493.475 51.898 493.475 C 52.306 493.475 52.634 493.148 52.634 492.739 L 52.634 491.268 C 52.634 490.86 52.306 490.533 51.898 490.533 Z  M 23.947 491.268 C 23.539 491.268 23.212 491.596 23.212 492.004 C 23.212 492.412 23.539 492.739 23.947 492.739 L 27.625 492.739 C 28.033 492.739 28.36 492.412 28.36 492.004 C 28.36 491.596 28.033 491.268 27.625 491.268 L 23.947 491.268 Z  M 57.047 491.268 C 56.639 491.268 56.311 491.596 56.311 492.004 C 56.311 492.412 56.639 492.739 57.047 492.739 L 60.725 492.739 C 61.133 492.739 61.46 492.412 61.46 492.004 C 61.46 491.596 61.133 491.268 60.725 491.268 L 57.047 491.268 Z  M 42.336 493.475 C 45.175 493.475 47.485 496.443 47.485 500.095 C 47.485 503.747 45.175 506.715 42.336 506.715 C 39.497 506.715 37.187 503.747 37.187 500.095 C 37.187 496.443 39.497 493.475 42.336 493.475 Z  M 55.576 497.153 C 53.952 497.153 52.634 498.471 52.634 500.095 C 52.634 501.718 53.952 503.037 55.576 503.037 C 57.199 503.037 58.518 501.718 58.518 500.095 C 58.518 498.471 57.199 497.153 55.576 497.153 Z  M 55.576 498.38 C 56.522 498.381 57.289 499.148 57.291 500.095 C 57.289 501.041 56.522 501.808 55.576 501.81 C 54.629 501.808 53.862 501.041 53.86 500.095 C 53.862 499.148 54.629 498.381 55.576 498.38 L 55.576 498.38 Z  M 27.142 499.167 C 27.204 499.169 27.265 499.18 27.323 499.198 C 29.029 499.68 30.415 500.925 31.078 502.568 L 33.107 507.557 C 34.341 510.611 37.309 512.608 40.604 512.599 L 56.906 512.599 C 56.881 513.87 56.681 515.132 56.311 516.349 L 54.458 522.377 C 54.362 522.686 54.076 522.898 53.752 522.897 L 35.888 522.897 C 35.611 522.898 35.357 522.741 35.233 522.492 L 33.431 518.888 C 33.42 518.866 33.398 518.851 33.383 518.828 C 33.368 518.805 33.363 518.779 33.348 518.759 L 30.207 514.84 C 29.447 513.886 28.854 512.795 28.185 511.404 C 27.689 510.195 27.365 508.922 27.223 507.623 L 26.386 499.983 C 26.359 499.74 26.457 499.499 26.645 499.342 C 26.783 499.224 26.961 499.161 27.142 499.167 Z  M 48.22 506.715 C 47.812 506.715 47.485 507.042 47.485 507.45 L 47.485 508.921 C 47.485 509.33 47.812 509.657 48.22 509.657 C 48.628 509.657 48.956 509.33 48.956 508.921 L 48.956 507.45 C 48.956 507.042 48.628 506.715 48.22 506.715 Z  M 51.898 506.715 C 51.49 506.715 51.162 507.042 51.162 507.45 L 51.162 508.921 C 51.162 509.33 51.49 509.657 51.898 509.657 C 52.306 509.657 52.634 509.33 52.634 508.921 L 52.634 507.45 C 52.634 507.042 52.306 506.715 51.898 506.715 Z  M 57.047 507.45 C 56.639 507.45 56.311 507.778 56.311 508.186 C 56.311 508.594 56.639 508.921 57.047 508.921 L 60.725 508.921 C 61.133 508.921 61.46 508.594 61.46 508.186 C 61.46 507.778 61.133 507.45 60.725 507.45 L 57.047 507.45 Z " fill="rgb(0,204,255)"/></g></svg>