<?xml version="1.0" standalone="no"?><!-- Generator: Gravit.io --><svg xmlns="http://www.w3.org/2000/svg" xmlns:xlink="http://www.w3.org/1999/xlink" style="isolation:isolate" viewBox="325 417.428 16 16" width="16" height="16"><g><g><path d=" M 340.111 418.317 L 325.889 418.317 L 325.889 420.094 L 340.111 420.094 L 340.111 418.317 Z  M 341 427.206 L 341 425.428 L 340.111 420.983 L 325.889 420.983 L 325 425.428 L 325 427.206 L 325.889 427.206 L 325.889 432.539 L 334.778 432.539 L 334.778 427.206 L 338.333 427.206 L 338.333 432.539 L 340.111 432.539 L 340.111 427.206 L 341 427.206 Z  M 333 430.761 L 327.667 430.761 L 327.667 427.206 L 333 427.206 L 333 430.761 Z " fill="rgb(191,191,191)"/></g><rect x="325" y="417.428" width="16" height="16" transform="matrix(1,0,0,1,0,0)" fill="none"/></g></svg>