<?xml version="1.0" standalone="no"?><!-- Generator: Gravit.io --><svg xmlns="http://www.w3.org/2000/svg" xmlns:xlink="http://www.w3.org/1999/xlink" style="isolation:isolate" viewBox="325.478 575.541 24.092 24.092" width="24.092" height="24.092"><g><rect x="325.478" y="575.541" width="24.092" height="24.092" transform="matrix(1,0,0,1,0,0)" fill="none"/><path d=" M 340.953 585.801 C 340.839 585.801 340.724 585.743 340.652 585.638 C 340.599 585.559 340.581 585.462 340.601 585.37 C 340.621 585.277 340.677 585.196 340.757 585.145 L 341.236 584.835 C 341.403 584.729 341.623 584.772 341.728 584.94 C 341.838 585.102 341.79 585.327 341.623 585.432 L 341.145 585.743 C 341.087 585.782 341.02 585.801 340.953 585.801 Z  M 344.703 581.845 L 330.345 581.845 C 329.561 581.845 328.92 582.486 328.92 583.271 L 328.92 591.903 C 328.92 592.688 329.561 593.329 330.345 593.329 L 344.703 593.329 C 345.487 593.329 346.128 592.688 346.128 591.903 L 346.128 583.271 C 346.128 582.486 345.492 581.845 344.703 581.845 L 344.703 581.845 Z  M 345.416 591.903 C 345.416 592.296 345.095 592.616 344.703 592.616 L 330.345 592.616 C 329.953 592.616 329.633 592.296 329.633 591.903 L 329.633 583.271 C 329.633 583.17 329.652 583.079 329.69 582.993 L 335.391 586.714 L 330.704 591.291 C 330.564 591.429 330.562 591.653 330.699 591.793 C 330.837 591.933 331.061 591.936 331.201 591.798 L 336.003 587.111 L 337.328 587.977 C 337.447 588.054 337.601 588.054 337.72 587.977 L 339.045 587.111 L 343.823 591.793 C 343.964 591.929 344.187 591.927 344.325 591.789 C 344.464 591.65 344.459 591.42 344.32 591.287 L 339.653 586.714 L 340.241 586.327 C 340.403 586.222 340.451 585.997 340.346 585.834 C 340.237 585.671 340.019 585.625 339.853 585.729 L 338.887 586.36 L 337.524 587.25 L 330.331 582.553 L 344.717 582.553 L 342.23 584.175 C 342.068 584.283 342.021 584.502 342.125 584.667 C 342.191 584.77 342.305 584.831 342.427 584.83 C 342.493 584.83 342.56 584.811 342.623 584.772 L 345.358 582.984 C 345.397 583.071 345.417 583.166 345.416 583.261 L 345.416 591.903 L 345.416 591.903 Z " fill="rgb(191,191,191)"/></g></svg>