<?xml version="1.0" standalone="no"?><!-- Generator: Gravit.io --><svg xmlns="http://www.w3.org/2000/svg" xmlns:xlink="http://www.w3.org/1999/xlink" style="isolation:isolate" viewBox="133.5 298 108 108" width="108" height="108"><g><g><g><path d=" M 133.5 352 C 133.5 322.197 157.697 298 187.5 298 C 217.303 298 241.5 322.197 241.5 352 C 241.5 381.803 217.303 406 187.5 406 C 157.697 406 133.5 381.803 133.5 352 Z  M 145.312 352 C 145.312 328.716 164.216 309.813 187.5 309.813 C 210.784 309.813 229.687 328.716 229.687 352 C 229.687 375.284 210.784 394.188 187.5 394.188 C 164.216 394.188 145.312 375.284 145.312 352 Z " fill-rule="evenodd" fill="rgb(255,0,0)"/></g></g><path d=" M 160.5 329.212 L 183.288 352 L 160.503 374.788 L 164.712 379 L 187.5 356.209 L 210.288 379 L 214.5 374.788 L 191.709 352 L 214.5 329.212 L 210.288 325 L 187.5 347.788 L 164.712 325.003 L 160.5 329.212 Z " fill="rgb(255,144,144)"/></g></svg>