<?xml version="1.0" standalone="no"?><!-- Generator: Gravit.io --><svg xmlns="http://www.w3.org/2000/svg" xmlns:xlink="http://www.w3.org/1999/xlink" style="isolation:isolate" viewBox="0 0 64 64" width="64" height="64"><g opacity="0.5"><path d=" M 5.12 5.12 C 2.304 5.12 0 7.424 0 10.24 C 0 13.056 2.304 15.36 5.12 15.36 C 7.936 15.36 10.24 13.056 10.24 10.24 C 10.24 7.424 7.936 5.12 5.12 5.12 Z  M 5.12 7.68 C 6.55 7.68 7.68 8.81 7.68 10.24 C 7.68 11.67 6.55 12.8 5.12 12.8 C 3.69 12.8 2.56 11.67 2.56 10.24 C 2.56 8.81 3.69 7.68 5.12 7.68 Z  M 15.36 8.96 L 15.36 11.52 L 64 11.52 L 64 8.96 L 15.36 8.96 Z  M 5.12 26.88 C 2.304 26.88 0 29.184 0 32 C 0 34.816 2.304 37.12 5.12 37.12 C 7.936 37.12 10.24 34.816 10.24 32 C 10.24 29.184 7.936 26.88 5.12 26.88 Z  M 5.12 29.44 C 6.55 29.44 7.68 30.57 7.68 32 C 7.68 33.43 6.55 34.56 5.12 34.56 C 3.69 34.56 2.56 33.43 2.56 32 C 2.56 30.57 3.69 29.44 5.12 29.44 Z  M 15.36 30.72 L 15.36 33.28 L 64 33.28 L 64 30.72 L 15.36 30.72 Z  M 5.12 48.64 C 2.304 48.64 0 50.944 0 53.76 C 0 56.576 2.304 58.88 5.12 58.88 C 7.936 58.88 10.24 56.576 10.24 53.76 C 10.24 50.944 7.936 48.64 5.12 48.64 Z  M 5.12 51.2 C 6.55 51.2 7.68 52.33 7.68 53.76 C 7.68 55.19 6.55 56.32 5.12 56.32 C 3.69 56.32 2.56 55.19 2.56 53.76 C 2.56 52.33 3.69 51.2 5.12 51.2 Z  M 15.36 52.48 L 15.36 55.04 L 64 55.04 L 64 52.48 L 15.36 52.48 Z " fill="rgb(255,255,255)"/></g></svg>