<?xml version="1.0" standalone="no"?><!-- Generator: Gravit.io --><svg xmlns="http://www.w3.org/2000/svg" xmlns:xlink="http://www.w3.org/1999/xlink" style="isolation:isolate" viewBox="333 10.35 32 32" width="32" height="32"><g><rect x="333" y="10.35" width="32" height="32" transform="matrix(1,0,0,1,0,0)" fill="none"/><g style="opacity:0.8;"><path d=" M 353.8 24.667 L 341 24.667 L 341 19.617 L 333 26.35 L 341 33.083 L 341 28.033 L 353.8 28.033 L 353.8 24.667 Z " fill="rgb(255,255,255)"/><path d=" M 350.6 38.133 C 356.776 38.133 361.8 32.848 361.8 26.35 C 361.8 19.852 356.776 14.567 350.6 14.567 C 347.565 14.567 344.824 15.861 342.806 17.933 L 338.658 17.933 C 341.242 13.882 345.622 11.2 350.6 11.2 C 358.539 11.2 365 17.997 365 26.35 C 365 34.703 358.539 41.5 350.6 41.5 C 345.622 41.5 341.242 38.818 338.658 34.767 L 342.806 34.767 C 344.884 36.92 347.683 38.129 350.6 38.133 Z " fill="rgb(255,255,255)"/></g></g></svg>