<?xml version="1.0" standalone="no"?><!-- Generator: Gravit.io --><svg xmlns="http://www.w3.org/2000/svg" xmlns:xlink="http://www.w3.org/1999/xlink" style="isolation:isolate" viewBox="112.5 125 150 150" width="150" height="150"><g><path d="M 130.921 125 L 244.079 125 C 254.246 125 262.5 133.254 262.5 143.421 L 262.5 256.579 C 262.5 266.746 254.246 275 244.079 275 L 130.921 275 C 120.754 275 112.5 266.746 112.5 256.579 L 112.5 143.421 C 112.5 133.254 120.754 125 130.921 125 Z" style="stroke:none;fill:#FFFFFF;stroke-miterlimit:10;"/><g><path d=" M 210.287 193.429 C 226.41 193.429 239.5 206.52 239.5 222.643 C 239.5 238.766 226.41 251.856 210.287 251.856 L 210.287 251.856 C 194.163 251.856 181.073 238.766 181.073 222.643 C 181.073 218.03 182.145 213.665 184.052 209.784 L 184.052 209.784 L 200.656 209.784 C 196.749 212.716 194.219 217.386 194.219 222.643 C 194.219 231.511 201.419 238.71 210.287 238.71 L 210.287 238.71 C 219.154 238.71 226.354 231.511 226.354 222.643 C 226.354 213.775 219.154 206.576 210.287 206.576 L 210.287 206.571 L 167.927 206.571 L 167.927 193.429 L 210.287 193.429 L 210.287 193.429 Z " fill-rule="evenodd" fill="rgb(0,200,146)"/><path d=" M 193.927 177.357 C 193.927 161.234 180.837 148.144 164.713 148.144 L 164.713 148.144 C 148.59 148.144 135.5 161.234 135.5 177.357 C 135.5 193.48 148.59 206.571 164.713 206.571 L 164.713 206.571 L 164.713 193.424 L 164.713 193.424 C 155.846 193.424 148.646 186.225 148.646 177.357 C 148.646 168.489 155.846 161.29 164.713 161.29 L 164.713 161.29 C 173.581 161.29 180.781 168.489 180.781 177.357 L 180.781 177.357 L 180.781 190.277 L 193.927 190.277 L 193.927 177.357 L 193.927 177.357 Z  M 164.713 206.571 L 164.713 206.571 L 164.713 206.571 Z " fill-rule="evenodd" fill="rgb(38,74,79)"/></g></g></svg>