<?xml version="1.0" standalone="no"?><!-- Generator: Gravit.io --><svg xmlns="http://www.w3.org/2000/svg" xmlns:xlink="http://www.w3.org/1999/xlink" style="isolation:isolate" viewBox="327.009 627.657 16 16" width="16" height="16"><g><g><rect x="327.009" y="627.657" width="16" height="16" transform="matrix(1,0,0,1,0,0)" fill="none"/></g><g><path d=" M 330.529 632.84 L 327.969 632.84 C 327.44 632.84 327.009 632.409 327.009 631.88 L 327.009 629.96 C 327.009 629.431 327.44 629 327.969 629 L 330.529 629 C 331.059 629 331.489 629.431 331.489 629.96 L 331.489 631.88 C 331.489 632.409 331.059 632.84 330.529 632.84 Z " fill="rgb(191,191,191)"/><rect x="332.129" y="630.6" width="1.6" height="0.64" transform="matrix(1,0,0,1,0,0)" fill="rgb(191,191,191)"/><rect x="332.129" y="638.92" width="1.6" height="0.64" transform="matrix(1,0,0,1,0,0)" fill="rgb(191,191,191)"/><path d=" M 336.929 632.84 L 334.369 632.84 C 333.84 632.84 333.409 632.409 333.409 631.88 L 333.409 629.96 C 333.409 629.431 333.84 629 334.369 629 L 336.929 629 C 337.459 629 337.889 629.431 337.889 629.96 L 337.889 631.88 C 337.889 632.409 337.459 632.84 336.929 632.84 Z  M 336.929 641.16 L 334.369 641.16 C 333.84 641.16 333.409 640.729 333.409 640.2 L 333.409 638.28 C 333.409 637.751 333.84 637.32 334.369 637.32 L 336.929 637.32 C 337.459 637.32 337.889 637.751 337.889 638.28 L 337.889 640.2 C 337.889 640.729 337.459 641.16 336.929 641.16 Z  M 330.529 641.16 L 327.969 641.16 C 327.44 641.16 327.009 640.729 327.009 640.2 L 327.009 638.28 C 327.009 637.751 327.44 637.32 327.969 637.32 L 330.529 637.32 C 331.059 637.32 331.489 637.751 331.489 638.28 L 331.489 640.2 C 331.489 640.729 331.059 641.16 330.529 641.16 Z " fill="rgb(191,191,191)"/><path d=" M 342.049 637 L 339.489 637 C 338.96 637 338.529 636.569 338.529 636.04 L 338.529 634.12 C 338.529 633.591 338.96 633.16 339.489 633.16 L 342.049 633.16 C 342.579 633.16 343.009 633.591 343.009 634.12 L 343.009 636.04 C 343.009 636.569 342.579 637 342.049 637 Z " fill="rgb(191,191,191)"/><path d=" M 339.489 630.6 L 338.529 630.6 L 338.529 631.24 L 339.489 631.24 C 340.019 631.24 340.449 631.671 340.449 632.2 L 340.449 632.52 L 341.089 632.52 L 341.089 632.2 C 341.089 631.318 340.371 630.6 339.489 630.6 Z " fill="rgb(191,191,191)"/><path d=" M 340.449 637.64 L 340.449 637.96 C 340.449 638.489 340.019 638.92 339.489 638.92 L 338.529 638.92 L 338.529 639.56 L 339.489 639.56 C 340.371 639.56 341.089 638.842 341.089 637.96 L 341.089 637.64 L 340.449 637.64 Z " fill="rgb(191,191,191)"/></g></g></svg>