<?xml version="1.0" standalone="no"?><!-- Generator: Gravit.io --><svg xmlns="http://www.w3.org/2000/svg" xmlns:xlink="http://www.w3.org/1999/xlink" style="isolation:isolate" viewBox="325 487.428 16 16" width="16" height="16"><g><path d=" M 333 487.428 C 331.154 487.428 329.404 488.081 329.404 488.081 L 328.73 488.327 L 330.462 491.476 C 329.913 491.75 329.086 492.202 328.077 493.024 C 326.577 494.234 325 496.076 325 498.505 C 325 500.356 325.798 501.735 327.212 502.48 C 328.62 503.221 330.543 503.428 333 503.428 C 335.457 503.428 337.38 503.221 338.788 502.48 C 340.202 501.735 341 500.356 341 498.505 C 341 496.081 339.466 494.24 338.009 493.028 C 337.702 492.774 337.399 492.558 337.106 492.351 L 341 492.351 L 341 491.12 L 335.842 491.12 L 337.245 488.318 L 336.596 488.081 C 336.596 488.081 334.846 487.428 333 487.428 Z  M 333 488.659 C 334.206 488.659 334.975 488.956 335.471 489.11 L 334.465 491.12 L 331.671 491.12 L 330.563 489.102 C 331.073 488.945 331.812 488.659 333 488.659 Z  M 331.471 492.351 L 334.684 492.351 C 334.76 492.384 335.951 492.917 337.226 493.975 C 338.534 495.067 339.769 496.609 339.769 498.505 C 339.769 500.048 339.289 500.822 338.216 501.39 C 337.149 501.951 335.38 502.197 333 502.197 C 330.62 502.197 328.851 501.951 327.779 501.39 C 326.711 500.822 326.231 500.048 326.231 498.505 C 326.231 496.62 327.5 495.077 328.846 493.98 C 329.648 493.327 330.53 492.78 331.471 492.351 Z  M 332.385 493.582 L 332.385 494.812 L 331.769 494.812 C 330.755 494.812 329.923 495.644 329.923 496.659 C 329.923 497.673 330.755 498.505 331.769 498.505 L 334.231 498.505 C 334.577 498.505 334.846 498.774 334.846 499.12 C 334.846 499.466 334.577 499.735 334.231 499.735 L 329.923 499.735 L 329.923 500.966 L 332.385 500.966 L 332.385 501.582 L 333.615 501.582 L 333.615 500.966 L 334.231 500.966 C 335.245 500.966 336.077 500.134 336.077 499.12 C 336.077 498.106 335.245 497.274 334.231 497.274 L 331.769 497.274 C 331.605 497.276 331.448 497.212 331.332 497.096 C 331.216 496.98 331.152 496.822 331.154 496.659 C 331.154 496.313 331.423 496.043 331.769 496.043 L 334.846 496.043 L 334.846 494.812 L 333.615 494.812 L 333.615 493.582 L 332.385 493.582 Z " fill="rgb(191,191,191)"/><rect x="325" y="487.428" width="16" height="16" transform="matrix(1,0,0,1,0,0)" fill="none"/></g></svg>