<?xml version="1.0" standalone="no"?><!-- Generator: Gravit.io --><svg xmlns="http://www.w3.org/2000/svg" xmlns:xlink="http://www.w3.org/1999/xlink" style="isolation:isolate" viewBox="157.009 557.657 16 16" width="16" height="16"><g><g><rect x="157.009" y="557.657" width="16" height="16" transform="matrix(1,0,0,1,0,0)" fill="none"/></g><path d=" M 163.545 563.96 L 160.226 563.96 C 160.226 563.728 160.249 563.496 160.296 563.269 C 160.428 562.565 160.765 561.916 161.263 561.401 L 160.595 560.295 C 160.396 559.976 160.471 559.555 160.779 559.35 C 160.857 559.302 160.943 559.271 161.033 559.258 L 161.033 559.258 L 161.033 559.257 C 161.296 559.209 161.562 559.328 161.701 559.557 L 162.369 560.618 C 162.741 560.442 163.138 560.332 163.545 560.291 L 163.545 563.96 Z  M 163.545 570.597 L 162.439 570.597 L 162.439 572.81 C 162.439 573.215 162.107 573.547 161.701 573.547 C 161.296 573.547 160.964 573.215 160.964 572.81 L 160.964 570.597 C 160.558 570.597 160.226 570.265 160.226 569.86 L 160.226 564.697 L 160.226 564.697 L 163.545 564.697 L 163.545 570.597 Z  M 169.814 569.122 L 169.814 569.122 L 169.814 565.435 L 169.814 565.435 L 169.814 569.122 Z  M 158.751 564.697 C 158.346 564.697 158.014 565.029 158.014 565.435 L 158.014 569.122 C 158.014 569.528 158.346 569.86 158.751 569.86 C 159.157 569.86 159.489 569.528 159.489 569.122 L 159.489 565.435 C 159.489 565.029 159.157 564.697 158.751 564.697 L 158.751 564.697 Z " fill-rule="evenodd" fill="rgb(191,191,191)"/><path d=" M 165.977 560.826 C 166.074 560.335 166.358 559.874 166.689 559.527 C 167.227 558.967 168.132 558.528 168.92 558.482 L 168.92 558.482 C 169.052 559.248 168.688 559.991 168.208 560.524 C 167.693 561.093 166.834 561.543 165.977 561.52 C 165.977 561.52 165.977 561.52 165.977 561.52 L 165.977 560.826 Z  M 165.977 562.238 C 166.103 562.264 166.229 562.279 166.357 562.279 C 167.214 562.279 167.731 561.519 168.967 561.519 L 168.967 561.519 C 169.9 561.519 171.467 562.359 172.005 563.275 C 169.159 564.067 169.631 567.895 172.005 568.496 C 171.685 569.207 171.516 569.529 171.103 570.158 C 170.528 571.036 169.739 572.144 168.73 572.151 C 167.834 572.159 167.572 571.573 166.357 571.582 C 166.218 571.583 166.092 571.591 165.977 571.605 L 165.977 562.238 Z " fill-rule="evenodd" fill="rgb(191,191,191)"/><line x1="164.651" y1="573" x2="164.651" y2="558.482" vector-effect="non-scaling-stroke" stroke-width="1" stroke="rgb(191,191,191)" stroke-linejoin="miter" stroke-linecap="square" stroke-miterlimit="3"/></g></svg>