<?xml version="1.0" standalone="no"?><!-- Generator: Gravit.io --><svg xmlns="http://www.w3.org/2000/svg" xmlns:xlink="http://www.w3.org/1999/xlink" style="isolation:isolate" viewBox="325.478 638.724 24.092 24.092" width="24.092" height="24.092"><g><rect x="325.478" y="638.724" width="24.092" height="24.092" transform="matrix(1,0,0,1,0,0)" fill="none"/><path d=" M 339.497 644.024 C 338.583 644.029 337.71 644.336 337.067 644.978 C 335.812 646.234 335.812 648.349 336.937 650.033 L 333.574 653.396 L 332.598 652.42 L 330.623 654.372 L 331.622 655.349 L 331.231 655.739 C 330.827 656.148 330.827 656.806 331.231 657.214 C 331.64 657.619 332.297 657.619 332.706 657.214 L 338.412 651.508 C 340.096 652.634 342.211 652.634 343.467 651.378 C 344.934 649.911 344.687 647.283 342.925 645.52 C 341.935 644.53 340.674 644.018 339.497 644.024 Z  M 339.497 646.106 C 340.128 646.106 340.877 646.424 341.449 646.996 C 342.363 647.91 342.623 649.271 341.992 649.903 C 341.36 650.535 340.001 650.275 339.084 649.361 C 338.168 648.447 337.911 647.085 338.543 646.453 C 338.779 646.217 339.117 646.106 339.497 646.106 Z " fill="rgb(191,191,191)"/></g></svg>