<?xml version="1.0" standalone="no"?><!-- Generator: Gravit.io --><svg xmlns="http://www.w3.org/2000/svg" xmlns:xlink="http://www.w3.org/1999/xlink" style="isolation:isolate" viewBox="0 0 64 64" width="64" height="64"><g opacity="0.5"><path d=" M 43.815 2.043 L 43.093 3.125 L 31.721 19.503 L 21.708 22.469 L 21.668 22.51 L 21.627 22.51 C 20.361 22.984 19.38 23.816 18.624 24.872 L 18.584 24.913 L 18.584 24.951 L 9.934 38.289 L 9.613 37.247 L 1.202 39.77 L 0 40.17 L 0.361 41.371 L 6.129 60.715 L 6.489 61.957 L 7.731 61.596 L 14.898 59.394 L 16.142 59.033 L 15.74 57.832 L 15.019 55.389 L 25.072 53.146 C 28.16 52.445 30.973 50.778 32.961 48.22 L 33.442 47.619 L 38.289 51.024 L 39.329 51.784 L 40.051 50.704 L 63.28 17.141 L 64 16.099 L 62.918 15.339 L 44.857 2.804 L 43.815 2.043 Z  M 44.456 5.607 L 60.436 16.741 L 51.264 29.997 C 52.44 26.247 50.638 21.756 46.819 19.103 C 46.809 19.098 46.829 19.069 46.819 19.064 C 46.809 19.053 46.788 19.074 46.778 19.064 C 44.551 17.491 41.903 16.836 39.49 17.061 C 38.138 17.182 36.834 17.621 35.685 18.342 L 44.456 5.607 Z  M 49.823 13.217 C 49.099 13.216 48.423 13.577 48.02 14.178 C 47.693 14.65 47.569 15.233 47.674 15.797 C 47.78 16.361 48.106 16.859 48.581 17.181 C 49.577 17.862 50.936 17.612 51.625 16.621 C 51.952 16.149 52.077 15.566 51.971 15.002 C 51.866 14.437 51.539 13.939 51.064 13.617 C 50.693 13.361 50.243 13.221 49.823 13.216 L 49.823 13.217 Z  M 39.81 19.584 C 41.582 19.424 43.56 19.909 45.296 21.146 L 45.337 21.186 C 48.967 23.685 50.047 27.919 48.221 30.558 L 48.18 30.558 C 47.26 31.981 45.722 32.75 43.815 32.841 C 43.879 31.373 43.36 29.912 42.213 28.836 C 42.203 28.826 42.184 28.846 42.173 28.836 C 40.425 27.108 37.702 26.819 35.685 28.155 C 34.463 25.957 34.374 23.57 35.565 21.866 C 36.475 20.55 38.039 19.744 39.81 19.585 L 39.81 19.584 Z  M 29.437 22.869 L 23.31 32.52 L 22.629 33.642 L 23.75 34.283 L 27.835 36.725 L 28.596 37.206 L 29.318 36.606 L 35.805 31.358 C 36.136 31.253 36.406 31.022 36.566 30.717 L 36.887 30.476 C 37.931 29.626 39.448 29.695 40.411 30.636 L 40.411 30.677 L 40.451 30.677 C 41.502 31.639 41.598 33.139 40.692 34.321 L 30.959 46.617 C 29.357 48.673 27.063 50.081 24.51 50.661 L 14.299 52.945 L 10.694 40.849 L 11.095 40.689 L 11.536 40.529 L 11.775 40.169 L 20.707 26.392 C 21.212 25.68 21.732 25.245 22.469 24.95 C 22.498 24.94 22.519 24.919 22.548 24.909 L 29.437 22.869 Z  M 32.361 23.029 C 31.865 25.256 32.365 27.675 33.643 29.797 L 28.396 34.083 L 26.193 32.76 L 32.361 23.029 Z  M 48.702 33.721 L 38.689 48.221 L 35.004 45.618 L 42.694 35.926 L 42.694 35.884 L 42.733 35.884 C 42.849 35.731 42.956 35.57 43.054 35.404 C 45.136 35.464 47.145 34.928 48.702 33.721 Z  M 7.891 40.411 L 12.936 57.351 L 8.211 58.793 L 3.163 41.891 L 7.891 40.411 Z " fill="rgb(255,255,255)"/></g></svg>