<?xml version="1.0" standalone="no"?><!-- Generator: Gravit.io --><svg xmlns="http://www.w3.org/2000/svg" xmlns:xlink="http://www.w3.org/1999/xlink" style="isolation:isolate" viewBox="20.269 391.053 42.153 39.462" width="42.153" height="39.462"><g opacity="0.5"><path d=" M 49.128 391.053 L 48.653 391.766 L 41.162 402.553 L 34.567 404.507 L 34.541 404.534 L 34.514 404.534 C 33.68 404.846 33.034 405.394 32.536 406.089 L 32.51 406.116 L 32.51 406.142 L 26.812 414.926 L 26.601 414.24 L 21.061 415.902 L 20.269 416.165 L 20.508 416.956 L 24.306 429.697 L 24.543 430.515 L 25.361 430.277 L 30.082 428.827 L 30.901 428.589 L 30.637 427.798 L 30.162 426.189 L 36.783 424.712 C 38.817 424.25 40.67 423.152 41.979 421.467 L 42.296 421.071 L 45.488 423.314 L 46.174 423.815 L 46.649 423.103 L 61.948 400.998 L 62.423 400.311 L 61.71 399.811 L 49.814 391.554 L 49.128 391.053 Z  M 49.55 393.401 L 60.075 400.734 L 54.034 409.465 C 54.809 406.995 53.622 404.037 51.106 402.29 C 51.1 402.287 51.113 402.267 51.106 402.264 C 51.1 402.257 51.086 402.27 51.079 402.264 C 49.612 401.228 47.868 400.797 46.279 400.944 C 45.389 401.025 44.53 401.314 43.773 401.788 L 49.55 393.401 Z  M 53.085 398.413 C 52.608 398.412 52.163 398.65 51.897 399.046 C 51.682 399.357 51.6 399.74 51.67 400.112 C 51.739 400.483 51.954 400.812 52.267 401.024 C 52.923 401.472 53.818 401.308 54.272 400.655 C 54.487 400.344 54.569 399.96 54.5 399.588 C 54.431 399.217 54.215 398.888 53.902 398.676 C 53.658 398.507 53.362 398.415 53.085 398.412 L 53.085 398.413 Z  M 46.49 402.606 C 47.657 402.501 48.96 402.821 50.104 403.635 L 50.131 403.662 C 52.521 405.308 53.233 408.097 52.03 409.835 L 52.003 409.835 C 51.397 410.772 50.384 411.278 49.128 411.338 C 49.17 410.371 48.828 409.409 48.073 408.7 C 48.066 408.693 48.053 408.707 48.047 408.7 C 46.895 407.562 45.101 407.371 43.773 408.252 C 42.968 406.804 42.909 405.232 43.694 404.11 C 44.294 403.243 45.323 402.712 46.49 402.607 L 46.49 402.606 Z  M 39.658 404.77 L 35.622 411.127 L 35.174 411.865 L 35.913 412.288 L 38.603 413.896 L 39.104 414.213 L 39.579 413.818 L 43.852 410.361 C 44.07 410.292 44.248 410.14 44.354 409.939 L 44.565 409.781 C 45.253 409.22 46.252 409.266 46.886 409.886 L 46.886 409.913 L 46.912 409.913 C 47.604 410.546 47.668 411.535 47.071 412.313 L 40.661 420.411 C 39.605 421.766 38.095 422.693 36.413 423.075 L 29.687 424.579 L 27.313 416.613 L 27.577 416.507 L 27.867 416.402 L 28.025 416.165 L 33.908 407.09 C 34.24 406.622 34.583 406.335 35.068 406.141 C 35.088 406.134 35.101 406.12 35.121 406.114 L 39.658 404.77 Z  M 41.584 404.875 C 41.257 406.342 41.587 407.935 42.428 409.333 L 38.972 412.156 L 37.521 411.285 L 41.584 404.875 Z  M 52.346 411.918 L 45.751 421.468 L 43.325 419.754 L 48.389 413.37 L 48.389 413.343 L 48.415 413.343 C 48.492 413.241 48.562 413.136 48.627 413.026 C 49.998 413.066 51.321 412.713 52.346 411.918 Z  M 25.467 416.324 L 28.79 427.482 L 25.678 428.431 L 22.353 417.299 L 25.467 416.324 Z " fill="rgb(0,204,255)"/></g></svg>