<?xml version="1.0" standalone="no"?><!-- Generator: Gravit.io --><svg xmlns="http://www.w3.org/2000/svg" xmlns:xlink="http://www.w3.org/1999/xlink" style="isolation:isolate" viewBox="325 612 16 16" width="16" height="16"><g><path d=" M 331.624 615.023 C 331.161 615.023 330.784 615.253 330.536 615.542 C 330.473 615.617 330.416 615.697 330.367 615.781 C 330.223 615.725 330.072 615.691 329.918 615.681 C 329.699 615.668 329.482 615.717 329.289 615.821 C 328.927 616.021 328.671 616.323 328.402 616.549 C 328.126 616.78 327.302 617.386 326.566 617.916 C 325.831 618.445 325.18 618.913 325.18 618.913 C 325.066 618.968 324.996 619.084 325 619.21 C 325.003 619.336 325.081 619.448 325.197 619.496 C 325.314 619.544 325.448 619.519 325.539 619.432 C 325.539 619.432 326.207 618.967 326.945 618.434 C 327.683 617.902 328.49 617.315 328.821 617.038 C 329.141 616.769 329.388 616.496 329.599 616.38 C 329.773 616.284 329.911 616.253 330.167 616.38 C 330.162 616.423 330.147 616.466 330.147 616.509 L 330.147 620.31 L 329.708 620.509 C 329.591 620.546 329.505 620.647 329.488 620.769 C 329.47 620.891 329.525 621.012 329.627 621.08 C 329.729 621.148 329.862 621.151 329.968 621.088 L 332.92 619.731 L 332.93 619.731 C 333.35 619.507 333.791 619.301 334.127 619.232 C 334.464 619.164 334.632 619.192 334.776 619.382 C 334.944 619.604 334.982 619.848 334.905 620.12 C 334.828 620.392 334.622 620.686 334.267 620.938 C 333.522 621.464 332.372 621.856 332.372 621.856 L 332.312 621.876 L 332.262 621.916 C 331.67 622.42 331.327 622.898 330.895 623.222 C 330.464 623.547 329.93 623.761 328.831 623.761 L 328.81 623.761 L 325.339 623.961 C 325.163 623.972 325.029 624.124 325.04 624.3 C 325.051 624.475 325.204 624.61 325.379 624.599 L 328.831 624.4 L 328.851 624.4 C 329.666 624.397 330.258 624.262 330.726 624.05 C 330.807 624.29 330.974 624.494 331.234 624.579 C 331.567 624.689 331.929 624.675 332.252 624.539 C 332.38 624.484 332.498 624.409 332.601 624.33 C 332.702 624.562 332.883 624.779 333.16 624.878 C 333.45 624.983 333.74 625.007 333.997 624.938 C 334.256 624.87 334.467 624.724 334.666 624.539 C 334.7 624.508 334.722 624.484 334.746 624.46 C 334.813 624.505 334.89 624.537 334.975 624.559 C 335.389 624.668 335.873 624.549 336.242 624.18 C 336.566 623.856 336.761 623.358 336.83 622.684 L 339.614 622.684 C 340.38 622.684 341 622.055 341 621.287 L 341 616.479 C 341 615.679 340.309 615.023 339.524 615.023 L 331.624 615.023 Z  M 331.624 615.661 L 339.524 615.661 C 339.921 615.661 340.362 616.087 340.362 616.48 L 340.362 616.619 L 330.786 616.619 L 330.786 616.509 C 330.786 616.377 330.872 616.139 331.025 615.961 C 331.178 615.782 331.372 615.661 331.624 615.661 Z  M 330.786 617.896 L 340.362 617.896 L 340.362 621.287 C 340.362 621.712 340.03 622.045 339.613 622.045 L 333.589 622.045 C 333.924 621.892 334.294 621.709 334.636 621.467 C 335.088 621.147 335.399 620.741 335.524 620.3 C 335.652 619.854 335.563 619.374 335.284 619.003 C 334.973 618.591 334.456 618.521 333.998 618.614 C 333.545 618.707 333.082 618.923 332.651 619.153 C 332.645 619.156 332.637 619.159 332.631 619.162 L 330.786 620.011 L 330.786 617.896 Z  M 332.382 622.684 L 332.601 622.684 C 332.582 622.908 332.55 623.246 332.511 623.462 C 332.506 623.488 332.505 623.514 332.501 623.542 C 332.483 623.553 332.467 623.567 332.452 623.581 C 332.314 623.745 332.156 623.881 331.993 623.951 C 331.829 624.02 331.666 624.046 331.434 623.971 C 331.376 623.952 331.312 623.86 331.304 623.711 C 331.716 623.397 332.019 623.04 332.382 622.684 Z  M 333.25 622.684 L 334.447 622.684 C 334.424 622.832 334.404 623.002 334.387 623.173 C 334.365 623.381 334.347 623.63 334.397 623.881 C 334.379 623.904 334.372 623.91 334.347 623.941 C 334.294 624.007 334.201 624.103 334.237 624.07 C 334.08 624.215 333.948 624.297 333.828 624.33 C 333.708 624.362 333.582 624.353 333.379 624.28 C 333.271 624.241 333.214 624.171 333.17 624.04 C 333.125 623.91 333.112 623.724 333.14 623.572 C 333.195 623.27 333.233 622.885 333.25 622.684 Z  M 335.095 622.684 L 336.182 622.684 C 336.116 623.218 335.968 623.557 335.793 623.731 C 335.556 623.969 335.355 623.998 335.135 623.941 C 335.061 623.921 335.055 623.903 335.025 623.771 C 334.995 623.639 334.995 623.432 335.015 623.242 C 335.036 623.038 335.067 622.84 335.095 622.684 Z " fill="rgb(191,191,191)"/><rect x="325" y="612" width="16" height="16" transform="matrix(1,0,0,1,0,0)" fill="none"/></g></svg>