<?xml version="1.0" standalone="no"?><!-- Generator: Gravit.io --><svg xmlns="http://www.w3.org/2000/svg" xmlns:xlink="http://www.w3.org/1999/xlink" style="isolation:isolate" viewBox="325 417.428 16 16" width="16" height="16"><g><g><rect x="325" y="417.428" width="16" height="16" transform="matrix(1,0,0,1,0,0)" fill="none"/></g><path d=" M 328.218 424.352 C 329.498 426.868 331.56 428.921 334.076 430.21 L 336.031 428.254 C 336.271 428.014 336.627 427.934 336.938 428.041 C 337.933 428.37 339.009 428.548 340.111 428.548 C 340.6 428.548 341 428.948 341 429.437 L 341 432.539 C 341 433.028 340.6 433.428 340.111 433.428 C 331.764 433.428 325 426.663 325 418.317 C 325 417.828 325.4 417.428 325.889 417.428 L 329 417.428 C 329.489 417.428 329.889 417.828 329.889 418.317 C 329.889 419.428 330.067 420.494 330.396 421.49 C 330.493 421.801 330.422 422.148 330.173 422.397 L 328.218 424.352 Z " fill="rgb(191,191,191)"/></g></svg>