<?xml version="1.0" standalone="no"?><!-- Generator: Gravit.io --><svg xmlns="http://www.w3.org/2000/svg" xmlns:xlink="http://www.w3.org/1999/xlink" style="isolation:isolate" viewBox="57.381 94.882 260.238 88.493" width="260.238" height="88.493"><g><path d=" M 229.126 94.882 L 229.126 123.2 L 257.444 123.2 L 257.444 94.882 L 229.126 94.882 Z  M 289.301 94.882 L 289.301 123.2 L 317.619 123.2 L 317.619 94.882 L 289.301 94.882 Z  M 232.665 98.422 L 253.904 98.422 L 253.904 119.66 L 232.665 119.66 L 232.665 98.422 Z  M 292.841 98.422 L 314.079 98.422 L 314.079 119.66 L 292.841 119.66 L 292.841 98.422 Z  M 264.523 100.191 L 264.523 110.811 L 271.602 110.811 L 271.602 117.89 L 264.523 117.89 L 264.523 128.509 L 245.054 128.509 L 245.054 135.589 L 237.975 135.589 L 237.975 146.208 L 248.594 146.208 L 248.594 139.128 L 257.444 139.128 L 257.444 146.208 L 268.063 146.208 L 268.063 132.049 L 271.602 132.049 L 271.602 139.128 L 283.991 139.128 L 283.991 146.208 L 291.071 146.208 L 291.071 149.748 L 285.761 149.748 L 285.761 156.827 L 282.222 156.827 L 282.222 149.748 L 271.602 149.748 L 271.602 160.367 L 278.682 160.367 L 278.682 163.906 L 271.602 163.906 L 271.602 174.526 L 282.222 174.526 L 282.222 167.446 L 289.301 167.446 L 289.301 160.367 L 292.841 160.367 L 292.841 172.756 L 285.761 172.756 L 285.761 183.375 L 296.381 183.375 L 296.381 176.296 L 299.92 176.296 L 299.92 183.375 L 310.539 183.375 L 310.539 172.756 L 303.46 172.756 L 303.46 156.827 L 296.381 156.827 L 296.381 153.287 L 317.619 153.287 L 317.619 135.589 L 310.539 135.589 L 310.539 128.509 L 299.92 128.509 L 299.92 139.128 L 307 139.128 L 307 142.668 L 294.611 142.668 L 294.611 128.509 L 275.142 128.509 L 275.142 121.43 L 282.222 121.43 L 282.222 107.271 L 275.142 107.271 L 275.142 100.191 L 264.523 100.191 Z  M 236.205 101.961 L 236.205 116.12 L 250.364 116.12 L 250.364 101.961 L 236.205 101.961 Z  M 296.381 101.961 L 296.381 116.12 L 310.539 116.12 L 310.539 101.961 L 296.381 101.961 Z  M 229.126 155.057 L 229.126 183.375 L 257.444 183.375 L 257.444 155.057 L 229.126 155.057 Z  M 232.665 158.597 L 253.904 158.597 L 253.904 179.835 L 232.665 179.835 L 232.665 158.597 Z  M 236.205 162.137 L 236.205 176.296 L 250.364 176.296 L 250.364 162.137 L 236.205 162.137 Z " fill="rgb(255,255,255)"/><path d=" M 187.243 153.127 C 187.09 153.127 186.939 153.091 186.802 153.022 C 186.459 152.856 186.242 152.508 186.243 152.127 L 186.243 144.127 L 164.243 144.127 C 163.691 144.127 163.243 143.679 163.243 143.127 L 163.243 135.127 C 163.243 134.577 163.693 134.127 164.243 134.127 L 186.243 134.127 L 186.243 126.127 C 186.246 125.747 186.463 125.401 186.803 125.233 C 187.144 125.066 187.55 125.104 187.853 125.334 L 204.853 138.334 C 205.101 138.523 205.246 138.816 205.245 139.128 C 205.244 139.439 205.097 139.732 204.848 139.92 L 187.848 152.92 C 187.675 153.054 187.462 153.127 187.243 153.127 Z " fill="rgb(255,255,255)"/><path d=" M 95.035 94.882 C 85.689 94.882 78.017 102.553 78.017 111.9 L 78.017 115.303 L 61.21 115.303 L 60.999 118.496 L 57.596 179.76 L 57.381 183.375 L 132.685 183.375 L 132.474 179.757 L 129.071 118.492 L 128.856 115.303 L 112.053 115.303 L 112.053 111.9 C 112.053 102.553 104.381 94.882 95.035 94.882 Z  M 95.035 101.689 C 100.674 101.689 105.246 106.26 105.246 111.9 L 105.246 115.303 L 84.824 115.303 L 84.824 111.9 C 84.824 106.26 89.396 101.689 95.035 101.689 Z  M 67.592 122.11 L 78.017 122.11 L 78.017 132.321 L 84.824 132.321 L 84.824 122.11 L 105.246 122.11 L 105.246 132.321 L 112.053 132.321 L 112.053 122.11 L 122.478 122.11 L 125.456 176.568 L 64.617 176.568 L 67.592 122.11 Z " fill="rgb(255,255,255)"/></g></svg>