<?xml version="1.0" standalone="no"?><!-- Generator: Gravit.io --><svg xmlns="http://www.w3.org/2000/svg" xmlns:xlink="http://www.w3.org/1999/xlink" style="isolation:isolate" viewBox="123.5 74.764 128 128" width="128" height="128"><path d=" M 123.5 74.764 L 123.5 115.724 L 164.46 115.724 L 164.46 74.764 L 123.5 74.764 Z  M 210.54 74.764 L 210.54 115.724 L 251.5 115.724 L 251.5 74.764 L 210.54 74.764 Z  M 128.62 79.884 L 159.34 79.884 L 159.34 110.604 L 128.62 110.604 L 128.62 79.884 Z  M 215.66 79.884 L 246.38 79.884 L 246.38 110.604 L 215.66 110.604 L 215.66 79.884 Z  M 174.7 82.444 L 174.7 97.804 L 184.94 97.804 L 184.94 108.044 L 174.7 108.044 L 174.7 123.404 L 146.54 123.404 L 146.54 133.644 L 136.3 133.644 L 136.3 149.004 L 151.66 149.004 L 151.66 138.764 L 164.46 138.764 L 164.46 149.004 L 179.82 149.004 L 179.82 128.524 L 184.94 128.524 L 184.94 138.764 L 202.86 138.764 L 202.86 149.004 L 213.1 149.004 L 213.1 154.124 L 205.42 154.124 L 205.42 164.364 L 200.3 164.364 L 200.3 154.124 L 184.94 154.124 L 184.94 169.484 L 195.18 169.484 L 195.18 174.604 L 184.94 174.604 L 184.94 189.964 L 200.3 189.964 L 200.3 179.724 L 210.54 179.724 L 210.54 169.484 L 215.66 169.484 L 215.66 187.404 L 205.42 187.404 L 205.42 202.764 L 220.78 202.764 L 220.78 192.524 L 225.9 192.524 L 225.9 202.764 L 241.26 202.764 L 241.26 187.404 L 231.02 187.404 L 231.02 164.364 L 220.78 164.364 L 220.78 159.244 L 251.5 159.244 L 251.5 133.644 L 241.26 133.644 L 241.26 123.404 L 225.9 123.404 L 225.9 138.764 L 236.14 138.764 L 236.14 143.884 L 218.22 143.884 L 218.22 123.404 L 190.06 123.404 L 190.06 113.164 L 200.3 113.164 L 200.3 92.684 L 190.06 92.684 L 190.06 82.444 L 174.7 82.444 Z  M 133.74 85.004 L 133.74 105.484 L 154.22 105.484 L 154.22 85.004 L 133.74 85.004 Z  M 220.78 85.004 L 220.78 105.484 L 241.26 105.484 L 241.26 85.004 L 220.78 85.004 Z  M 123.5 161.804 L 123.5 202.764 L 164.46 202.764 L 164.46 161.804 L 123.5 161.804 Z  M 128.62 166.924 L 159.34 166.924 L 159.34 197.644 L 128.62 197.644 L 128.62 166.924 Z  M 133.74 172.044 L 133.74 192.524 L 154.22 192.524 L 154.22 172.044 L 133.74 172.044 Z " fill="rgb(255,255,255)"/></svg>