<?xml version="1.0" standalone="no"?><!-- Generator: Gravit.io --><svg xmlns="http://www.w3.org/2000/svg" xmlns:xlink="http://www.w3.org/1999/xlink" style="isolation:isolate" viewBox="22.106 735.797 37.203 37.203" width="37.203" height="37.203"><path d=" M 30.29 753.654 L 22.85 753.654 C 22.439 753.654 22.106 753.321 22.106 752.91 L 22.106 745.47 C 22.106 745.059 22.439 744.726 22.85 744.726 L 30.29 744.726 C 30.701 744.726 31.034 745.059 31.034 745.47 L 31.034 752.91 C 31.034 753.321 30.701 753.654 30.29 753.654 Z  M 58.565 744.726 L 51.124 744.726 C 50.713 744.726 50.38 744.393 50.38 743.982 L 50.38 736.541 C 50.38 736.13 50.713 735.797 51.124 735.797 L 58.565 735.797 C 58.976 735.797 59.309 736.13 59.309 736.541 L 59.309 743.982 C 59.309 744.393 58.976 744.726 58.565 744.726 Z  M 56.725 756.843 L 49.607 759.006 C 49.418 759.063 49.214 759.043 49.04 758.95 C 48.866 758.857 48.736 758.699 48.678 758.51 L 46.515 751.391 C 46.458 751.202 46.478 750.998 46.571 750.824 C 46.664 750.65 46.822 750.52 47.011 750.462 L 54.129 748.299 C 54.318 748.242 54.522 748.262 54.696 748.355 C 54.87 748.448 55 748.606 55.058 748.795 L 57.221 755.913 C 57.279 756.102 57.259 756.307 57.166 756.481 C 57.073 756.655 56.914 756.785 56.725 756.843 Z  M 46.746 742.44 L 42.324 748.424 C 42.207 748.583 42.031 748.688 41.836 748.718 C 41.641 748.747 41.442 748.697 41.283 748.58 L 35.299 744.157 C 34.969 743.913 34.899 743.448 35.143 743.117 L 39.566 737.133 C 39.81 736.803 40.276 736.733 40.606 736.977 L 46.59 741.4 C 46.748 741.517 46.854 741.692 46.883 741.888 C 46.913 742.083 46.863 742.281 46.746 742.44 Z  M 30.29 763.327 L 22.85 763.327 C 22.439 763.327 22.106 762.994 22.106 762.583 L 22.106 755.143 C 22.106 754.732 22.439 754.399 22.85 754.399 L 30.29 754.399 C 30.701 754.399 31.034 754.732 31.034 755.143 L 31.034 762.583 C 31.034 762.994 30.701 763.327 30.29 763.327 Z  M 30.29 773 L 22.85 773 C 22.439 773 22.106 772.667 22.106 772.256 L 22.106 764.815 C 22.106 764.404 22.439 764.071 22.85 764.071 L 30.29 764.071 C 30.701 764.071 31.034 764.404 31.034 764.815 L 31.034 772.256 C 31.034 772.667 30.701 773 30.29 773 Z  M 39.963 773 L 32.523 773 C 32.112 773 31.778 772.667 31.778 772.256 L 31.778 764.815 C 31.778 764.404 32.112 764.071 32.523 764.071 L 39.963 764.071 C 40.374 764.071 40.707 764.404 40.707 764.815 L 40.707 772.256 C 40.707 772.667 40.374 773 39.963 773 Z  M 39.963 763.327 L 32.523 763.327 C 32.112 763.327 31.778 762.994 31.778 762.583 L 31.778 755.143 C 31.778 754.732 32.112 754.399 32.523 754.399 L 39.963 754.399 C 40.374 754.399 40.707 754.732 40.707 755.143 L 40.707 762.583 C 40.707 762.994 40.374 763.327 39.963 763.327 Z  M 49.636 773 L 42.195 773 C 41.784 773 41.451 772.667 41.451 772.256 L 41.451 764.815 C 41.451 764.404 41.784 764.071 42.195 764.071 L 49.636 764.071 C 50.047 764.071 50.38 764.404 50.38 764.815 L 50.38 772.256 C 50.38 772.667 50.047 773 49.636 773 Z " fill="rgb(127,229,255)"/></svg>