<?xml version="1.0" standalone="no"?><!-- Generator: Gravit.io --><svg xmlns="http://www.w3.org/2000/svg" xmlns:xlink="http://www.w3.org/1999/xlink" style="isolation:isolate" viewBox="124.5 71.25 128 128" width="128" height="128"><path d=" M 152.66 132.69 L 127.06 132.69 C 125.646 132.69 124.5 131.544 124.5 130.13 L 124.5 104.53 C 124.5 103.116 125.646 101.97 127.06 101.97 L 152.66 101.97 C 154.074 101.97 155.22 103.116 155.22 104.53 L 155.22 130.13 C 155.22 131.544 154.074 132.69 152.66 132.69 Z  M 249.94 101.97 L 224.34 101.97 C 222.926 101.97 221.78 100.824 221.78 99.41 L 221.78 73.81 C 221.78 72.396 222.926 71.25 224.34 71.25 L 249.94 71.25 C 251.354 71.25 252.5 72.396 252.5 73.81 L 252.5 99.41 C 252.5 100.824 251.354 101.97 249.94 101.97 Z  M 243.612 143.66 L 219.12 151.102 C 218.47 151.299 217.769 151.231 217.169 150.911 C 216.57 150.591 216.123 150.046 215.925 149.397 L 208.483 124.902 C 208.286 124.253 208.354 123.551 208.674 122.952 C 208.994 122.353 209.538 121.905 210.188 121.708 L 234.68 114.266 C 235.33 114.068 236.031 114.136 236.631 114.456 C 237.23 114.776 237.677 115.321 237.875 115.971 L 245.317 140.462 C 245.515 141.112 245.447 141.815 245.127 142.414 C 244.807 143.014 244.262 143.462 243.612 143.66 Z  M 209.277 94.106 L 194.063 114.693 C 193.659 115.24 193.055 115.603 192.384 115.704 C 191.712 115.805 191.028 115.635 190.481 115.231 L 169.894 100.014 C 168.758 99.174 168.517 97.572 169.356 96.435 L 184.573 75.848 C 185.413 74.712 187.015 74.471 188.152 75.31 L 208.739 90.527 C 209.286 90.93 209.649 91.534 209.75 92.205 C 209.851 92.876 209.681 93.56 209.277 94.106 Z  M 152.66 165.97 L 127.06 165.97 C 125.646 165.97 124.5 164.824 124.5 163.41 L 124.5 137.81 C 124.5 136.396 125.646 135.25 127.06 135.25 L 152.66 135.25 C 154.074 135.25 155.22 136.396 155.22 137.81 L 155.22 163.41 C 155.22 164.824 154.074 165.97 152.66 165.97 Z  M 152.66 199.25 L 127.06 199.25 C 125.646 199.25 124.5 198.104 124.5 196.69 L 124.5 171.09 C 124.5 169.676 125.646 168.53 127.06 168.53 L 152.66 168.53 C 154.074 168.53 155.22 169.676 155.22 171.09 L 155.22 196.69 C 155.22 198.104 154.074 199.25 152.66 199.25 Z  M 185.94 199.25 L 160.34 199.25 C 158.926 199.25 157.78 198.104 157.78 196.69 L 157.78 171.09 C 157.78 169.676 158.926 168.53 160.34 168.53 L 185.94 168.53 C 187.354 168.53 188.5 169.676 188.5 171.09 L 188.5 196.69 C 188.5 198.104 187.354 199.25 185.94 199.25 Z  M 185.94 165.97 L 160.34 165.97 C 158.926 165.97 157.78 164.824 157.78 163.41 L 157.78 137.81 C 157.78 136.396 158.926 135.25 160.34 135.25 L 185.94 135.25 C 187.354 135.25 188.5 136.396 188.5 137.81 L 188.5 163.41 C 188.5 164.824 187.354 165.97 185.94 165.97 Z  M 219.22 199.25 L 193.62 199.25 C 192.206 199.25 191.06 198.104 191.06 196.69 L 191.06 171.09 C 191.06 169.676 192.206 168.53 193.62 168.53 L 219.22 168.53 C 220.634 168.53 221.78 169.676 221.78 171.09 L 221.78 196.69 C 221.78 198.104 220.634 199.25 219.22 199.25 Z " fill="rgb(255,255,255)"/></svg>