<?xml version="1.0" standalone="no"?><!-- Generator: Gravit.io --><svg xmlns="http://www.w3.org/2000/svg" xmlns:xlink="http://www.w3.org/1999/xlink" style="isolation:isolate" viewBox="325.478 638.724 24.092 24.092" width="24.092" height="24.092"><g><rect x="325.478" y="638.724" width="24.092" height="24.092" transform="matrix(1,0,0,1,0,0)" fill="none"/><path d=" M 349.269 644.914 L 348.465 644.914 L 348.465 643.368 C 348.465 643.209 348.329 643.083 348.157 643.083 L 340.214 643.083 C 339.038 643.083 338.012 643.72 337.524 644.635 C 337.036 643.72 336.017 643.083 334.834 643.083 L 326.899 643.083 C 326.726 643.083 326.59 643.209 326.59 643.368 L 326.59 644.914 L 325.787 644.914 C 325.614 644.914 325.478 645.04 325.478 645.199 L 325.478 658.173 C 325.478 658.332 325.614 658.458 325.787 658.458 L 349.262 658.458 C 349.434 658.458 349.57 658.332 349.57 658.173 L 349.57 645.199 C 349.577 645.04 349.441 644.914 349.269 644.914 L 349.269 644.914 Z  M 337.84 645.856 C 337.84 644.642 338.909 643.66 340.214 643.66 L 347.841 643.66 L 347.841 656.866 L 337.84 656.866 L 337.84 645.856 Z  M 327.214 643.66 L 334.841 643.66 C 336.154 643.66 337.216 644.648 337.216 645.856 L 337.216 656.866 L 327.214 656.866 L 327.214 643.66 Z  M 326.095 645.491 L 326.583 645.491 L 326.583 657.165 C 326.583 657.198 326.59 657.224 326.604 657.257 C 326.604 657.264 326.612 657.271 326.612 657.284 C 326.612 657.291 326.619 657.297 326.619 657.304 L 326.978 657.894 L 326.088 657.894 L 326.095 645.491 L 326.095 645.491 Z  M 327.43 657.443 L 337.216 657.443 L 337.216 657.888 L 327.702 657.888 L 327.43 657.443 L 327.43 657.443 Z  M 337.84 657.888 L 337.84 657.443 L 347.626 657.443 L 347.36 657.888 L 337.84 657.888 Z  M 348.96 657.888 L 348.071 657.888 L 348.429 657.297 C 348.436 657.291 348.436 657.284 348.436 657.277 C 348.444 657.271 348.444 657.264 348.444 657.257 C 348.458 657.224 348.465 657.198 348.465 657.165 L 348.465 645.491 L 348.953 645.491 L 348.953 657.888 L 348.96 657.888 L 348.96 657.888 Z  M 335.508 645.942 L 328.864 645.942 C 328.786 645.942 328.714 646.001 328.714 646.081 C 328.714 646.154 328.778 646.22 328.864 646.22 L 335.508 646.22 C 335.587 646.22 335.659 646.161 335.659 646.081 C 335.652 646.001 335.587 645.942 335.508 645.942 Z  M 335.508 647.534 L 328.864 647.534 C 328.786 647.534 328.714 647.593 328.714 647.673 C 328.714 647.746 328.778 647.812 328.864 647.812 L 335.508 647.812 C 335.587 647.812 335.659 647.753 335.659 647.673 C 335.652 647.593 335.587 647.534 335.508 647.534 Z  M 335.508 649.132 L 328.864 649.132 C 328.786 649.132 328.714 649.192 328.714 649.271 C 328.714 649.344 328.778 649.411 328.864 649.411 L 335.508 649.411 C 335.587 649.411 335.659 649.351 335.659 649.271 C 335.652 649.192 335.587 649.132 335.508 649.132 Z  M 335.508 655.506 L 328.864 655.506 C 328.786 655.506 328.714 655.566 328.714 655.646 C 328.714 655.719 328.778 655.785 328.864 655.785 L 335.508 655.785 C 335.587 655.785 335.659 655.725 335.659 655.646 C 335.652 655.566 335.587 655.506 335.508 655.506 Z  M 328.857 650.996 L 333.284 650.996 C 333.363 650.996 333.435 650.936 333.435 650.857 C 333.435 650.777 333.37 650.717 333.284 650.717 L 328.857 650.717 C 328.778 650.717 328.707 650.777 328.707 650.857 C 328.707 650.936 328.778 650.996 328.857 650.996 Z  M 328.857 652.595 L 333.284 652.595 C 333.363 652.595 333.435 652.535 333.435 652.455 C 333.435 652.382 333.37 652.316 333.284 652.316 L 328.857 652.316 C 328.778 652.316 328.707 652.376 328.707 652.455 C 328.714 652.528 328.778 652.595 328.857 652.595 Z  M 328.857 654.186 L 333.284 654.186 C 333.363 654.186 333.435 654.127 333.435 654.047 C 333.435 653.974 333.37 653.908 333.284 653.908 L 328.857 653.908 C 328.778 653.908 328.707 653.968 328.707 654.047 C 328.714 654.127 328.778 654.186 328.857 654.186 Z  M 346.385 649.132 L 339.741 649.132 C 339.662 649.132 339.59 649.192 339.59 649.271 C 339.59 649.344 339.655 649.411 339.741 649.411 L 346.385 649.411 C 346.463 649.411 346.535 649.351 346.535 649.271 C 346.535 649.192 346.471 649.132 346.385 649.132 Z  M 346.385 655.506 L 339.741 655.506 C 339.662 655.506 339.59 655.566 339.59 655.646 C 339.59 655.719 339.655 655.785 339.741 655.785 L 346.385 655.785 C 346.463 655.785 346.535 655.725 346.535 655.646 C 346.535 655.566 346.471 655.506 346.385 655.506 Z  M 346.385 650.724 L 341.958 650.724 C 341.879 650.724 341.807 650.784 341.807 650.863 C 341.807 650.943 341.872 651.003 341.958 651.003 L 346.385 651.003 C 346.463 651.003 346.535 650.943 346.535 650.863 C 346.535 650.784 346.471 650.724 346.385 650.724 Z  M 346.385 652.316 L 341.958 652.316 C 341.879 652.316 341.807 652.376 341.807 652.455 C 341.807 652.528 341.872 652.595 341.958 652.595 L 346.385 652.595 C 346.463 652.595 346.535 652.535 346.535 652.455 C 346.535 652.382 346.471 652.316 346.385 652.316 Z  M 346.385 653.915 L 341.958 653.915 C 341.879 653.915 341.807 653.974 341.807 654.054 C 341.807 654.127 341.872 654.193 341.958 654.193 L 346.385 654.193 C 346.463 654.193 346.535 654.133 346.535 654.054 C 346.535 653.974 346.471 653.915 346.385 653.915 Z  M 346.385 645.763 L 339.741 645.763 C 339.662 645.763 339.59 645.822 339.59 645.902 L 339.59 648.675 C 339.59 648.748 339.655 648.814 339.741 648.814 L 346.385 648.814 C 346.463 648.814 346.535 648.754 346.535 648.675 L 346.535 645.902 C 346.535 645.829 346.471 645.763 346.385 645.763 Z  M 346.241 648.535 L 339.892 648.535 L 339.892 646.041 L 346.241 646.041 L 346.241 648.535 Z " fill="rgb(191,191,191)"/></g></svg>