<?xml version="1.0" standalone="no"?><!-- Generator: Gravit.io --><svg xmlns="http://www.w3.org/2000/svg" xmlns:xlink="http://www.w3.org/1999/xlink" style="isolation:isolate" viewBox="0 0 64 64" width="64" height="64"><g opacity="0.54"><path d=" M 49.594 1.787 C 49.594 0.8 50.394 0 51.381 0 C 52.367 0 53.167 0.8 53.167 1.787 L 53.167 43.914 C 51.992 43.641 50.769 43.641 49.594 43.914 L 49.594 1.787 Z  M 53.148 62.213 C 53.148 63.2 52.348 64 51.362 64 C 50.375 64 49.575 63.2 49.575 62.213 L 49.575 59.185 C 50.75 59.459 51.973 59.459 53.148 59.185 L 53.148 62.213 Z  M 30.223 1.787 C 30.223 0.8 31.023 0 32.009 0 C 32.996 0 33.796 0.8 33.796 1.787 L 33.796 4.815 C 32.621 4.541 31.398 4.541 30.223 4.815 L 30.223 1.787 Z  M 33.777 62.213 C 33.777 63.2 32.977 64 31.991 64 C 31.004 64 30.204 63.2 30.204 62.213 L 30.204 20.086 C 31.379 20.359 32.602 20.359 33.777 20.086 L 33.777 62.213 Z  M 31.991 10.193 C 30.749 10.193 29.734 11.209 29.734 12.45 C 29.734 13.691 30.749 14.707 31.991 14.707 C 33.232 14.707 34.247 13.691 34.247 12.45 C 34.266 11.209 33.251 10.193 31.991 10.193 Z  M 31.991 6.564 C 28.737 6.564 26.085 9.215 26.085 12.469 C 26.085 15.723 28.737 18.374 31.991 18.374 C 35.244 18.374 37.896 15.704 37.896 12.45 C 37.896 9.197 35.244 6.564 31.991 6.564 L 31.991 6.564 Z  M 31.991 15.685 C 30.204 15.685 28.756 14.237 28.756 12.45 C 28.756 10.664 30.204 9.215 31.991 9.215 C 33.777 9.215 35.225 10.664 35.225 12.45 C 35.225 14.237 33.777 15.685 31.991 15.685 Z  M 51.381 49.274 C 50.139 49.274 49.124 50.29 49.124 51.531 C 49.124 52.772 50.139 53.788 51.381 53.788 C 52.622 53.788 53.637 52.772 53.637 51.531 C 53.637 50.29 52.622 49.274 51.381 49.274 Z  M 51.381 45.644 C 48.127 45.644 45.475 48.296 45.475 51.55 C 45.475 54.803 48.127 57.455 51.381 57.455 C 54.634 57.455 57.286 54.803 57.286 51.55 C 57.286 48.296 54.634 45.644 51.381 45.644 Z  M 51.381 54.766 C 50.072 54.766 48.893 53.978 48.392 52.769 C 47.891 51.56 48.168 50.169 49.093 49.244 C 50.018 48.319 51.41 48.042 52.618 48.542 C 53.827 49.043 54.615 50.223 54.615 51.531 C 54.615 53.318 53.148 54.766 51.381 54.766 Z  M 10.852 1.787 C 10.852 0.8 11.652 0 12.638 0 C 13.625 0 14.425 0.8 14.425 1.787 L 14.425 24.374 C 13.25 24.1 12.027 24.1 10.852 24.374 L 10.852 1.787 Z  M 14.406 62.213 C 14.406 63.2 13.606 64 12.619 64 C 11.633 64 10.833 63.2 10.833 62.213 L 10.833 39.626 C 12.008 39.9 13.231 39.9 14.406 39.626 L 14.406 62.213 L 14.406 62.213 Z  M 12.619 26.104 C 9.366 26.104 6.714 28.756 6.714 32.009 C 6.714 35.263 9.366 37.915 12.619 37.915 C 15.873 37.915 18.525 35.263 18.525 32.009 C 18.525 28.756 15.873 26.104 12.619 26.104 Z  M 12.619 35.225 C 11.464 35.225 10.396 34.609 9.818 33.608 C 9.24 32.607 9.24 31.374 9.818 30.373 C 10.396 29.372 11.464 28.756 12.619 28.756 C 14.406 28.756 15.854 30.204 15.854 31.991 C 15.854 33.777 14.406 35.225 12.619 35.225 L 12.619 35.225 Z  M 12.619 29.734 C 11.378 29.734 10.363 30.749 10.363 31.991 C 10.363 33.232 11.378 34.247 12.619 34.247 C 13.861 34.247 14.876 33.232 14.876 31.991 C 14.876 30.749 13.861 29.734 12.619 29.734 Z " fill="rgb(255,255,255)"/></g></svg>