<?xml version="1.0" standalone="no"?><!-- Generator: Gravit.io --><svg xmlns="http://www.w3.org/2000/svg" xmlns:xlink="http://www.w3.org/1999/xlink" style="isolation:isolate" viewBox="328.5 553.803 16 16" width="16" height="16"><g><path d=" M 336.5 553.803 C 334.81 553.803 333.423 555.19 333.423 556.88 L 333.423 557.495 L 330.385 557.495 L 330.346 558.072 L 329.731 569.149 L 329.692 569.803 L 343.308 569.803 L 343.27 569.149 L 342.654 558.072 L 342.615 557.495 L 339.577 557.495 L 339.577 556.88 C 339.577 555.19 338.19 553.803 336.5 553.803 Z  M 336.5 555.034 C 337.52 555.034 338.346 555.86 338.346 556.88 L 338.346 557.495 L 334.654 557.495 L 334.654 556.88 C 334.654 555.86 335.481 555.034 336.5 555.034 Z  M 331.538 558.726 L 333.423 558.726 L 333.423 560.572 L 334.654 560.572 L 334.654 558.726 L 338.346 558.726 L 338.346 560.572 L 339.577 560.572 L 339.577 558.726 L 341.462 558.726 L 342.001 568.572 L 331.001 568.572 L 331.538 558.726 Z " fill="rgb(191,191,191)"/><rect x="328.5" y="553.803" width="16" height="16" transform="matrix(1,0,0,1,0,0)" fill="none"/></g></svg>