<?xml version="1.0" standalone="no"?><!-- Generator: Gravit.io --><svg xmlns="http://www.w3.org/2000/svg" xmlns:xlink="http://www.w3.org/1999/xlink" style="isolation:isolate" viewBox="327.009 557.657 16 16" width="16" height="16"><g><g><rect x="327.009" y="557.657" width="16" height="16" transform="matrix(1,0,0,1,0,0)" fill="none"/></g><path d=" M 338.254 557.657 L 331.765 557.657 C 330.843 557.657 330.089 558.407 330.089 559.332 L 330.089 571.872 C 330.089 572.794 330.839 573.547 331.765 573.547 L 338.254 573.547 C 339.176 573.547 339.929 572.798 339.929 571.872 L 339.929 559.329 C 339.929 558.407 339.18 557.657 338.254 557.657 L 338.254 557.657 Z  M 339.309 571.868 C 339.309 572.449 338.835 572.923 338.254 572.923 L 331.765 572.923 C 331.184 572.923 330.709 572.449 330.709 571.868 L 330.709 559.329 C 330.709 558.748 331.184 558.273 331.765 558.273 L 338.254 558.273 C 338.835 558.273 339.309 558.748 339.309 559.329 L 339.309 571.868 L 339.309 571.868 Z  M 331.349 570.047 L 338.674 570.047 L 338.674 559.831 L 331.349 559.831 L 331.349 570.047 Z  M 331.659 560.141 L 338.368 560.141 L 338.368 569.737 L 331.659 569.737 L 331.659 560.141 L 331.659 560.141 Z  M 335.009 570.64 C 334.53 570.64 334.142 571.028 334.142 571.507 C 334.142 571.986 334.531 572.375 335.01 572.374 C 335.489 572.374 335.877 571.986 335.877 571.507 C 335.877 571.028 335.488 570.64 335.009 570.64 L 335.009 570.64 Z  M 335.009 572.064 C 334.703 572.064 334.452 571.813 334.452 571.507 C 334.452 571.201 334.703 570.95 335.009 570.95 C 335.315 570.95 335.566 571.201 335.566 571.507 C 335.566 571.813 335.319 572.064 335.009 572.064 Z  M 335.009 559.517 C 335.186 559.517 335.349 559.422 335.437 559.269 C 335.526 559.116 335.526 558.927 335.437 558.774 C 335.349 558.621 335.185 558.527 335.008 558.527 C 334.735 558.528 334.514 558.749 334.514 559.023 C 334.514 559.296 334.736 559.517 335.009 559.517 L 335.009 559.517 Z  M 335.009 558.838 C 335.084 558.838 335.151 558.883 335.18 558.952 C 335.208 559.021 335.192 559.1 335.14 559.153 C 335.087 559.206 335.008 559.221 334.939 559.193 C 334.87 559.164 334.825 559.097 334.825 559.023 C 334.829 558.921 334.911 558.838 335.009 558.838 Z " fill="rgb(191,191,191)"/></g></svg>