<?xml version="1.0" standalone="no"?><!-- Generator: Gravit.io --><svg xmlns="http://www.w3.org/2000/svg" xmlns:xlink="http://www.w3.org/1999/xlink" style="isolation:isolate" viewBox="133.5 298 108 108" width="108" height="108"><g><g><path d=" M 133.5 352 C 133.5 322.197 157.697 298 187.5 298 C 217.303 298 241.5 322.197 241.5 352 C 241.5 381.803 217.303 406 187.5 406 C 157.697 406 133.5 381.803 133.5 352 Z  M 145.312 352 C 145.312 328.716 164.216 309.813 187.5 309.813 C 210.784 309.813 229.687 328.716 229.687 352 C 229.687 375.284 210.784 394.188 187.5 394.188 C 164.216 394.188 145.312 375.284 145.312 352 Z " fill-rule="evenodd" fill="rgb(3,160,253)"/></g><g><path d=" M 146.858 310.358 L 230.142 310.358 L 230.142 393.642 L 146.858 393.642 L 146.858 310.358 Z " fill="none"/><path d=" M 178.09 366.575 L 163.515 352 L 158.657 356.858 L 178.09 376.291 L 219.731 334.649 L 214.873 329.791 L 178.09 366.575 Z " fill="rgb(77,229,225)"/></g></g></svg>