<?xml version="1.0" standalone="no"?><!-- Generator: Gravit.io --><svg xmlns="http://www.w3.org/2000/svg" xmlns:xlink="http://www.w3.org/1999/xlink" style="isolation:isolate" viewBox="29.472 671 22.676 27.211" width="22.676" height="27.211"><path d=" M 29.472 671 L 29.472 698.211 L 52.148 698.211 L 52.148 671 L 29.472 671 Z  M 30.437 671.965 L 51.183 671.965 L 51.183 697.246 L 30.437 697.246 L 30.437 671.965 Z  M 34.007 678.937 L 34.007 679.902 L 36.275 679.902 L 36.275 678.937 L 34.007 678.937 Z  M 38.542 678.937 L 38.542 679.902 L 47.613 679.902 L 47.613 678.937 L 38.542 678.937 Z  M 34.007 684.123 L 34.007 685.088 L 36.275 685.088 L 36.275 684.123 L 34.007 684.123 Z  M 38.542 684.123 L 38.542 685.088 L 47.613 685.088 L 47.613 684.123 L 38.542 684.123 Z  M 34.007 689.31 L 34.007 690.275 L 36.275 690.275 L 36.275 689.31 L 34.007 689.31 Z  M 38.542 689.31 L 38.542 690.275 L 47.613 690.275 L 47.613 689.31 L 38.542 689.31 Z " fill="rgb(127,229,255)"/></svg>