<?xml version="1.0" standalone="no"?><!-- Generator: Gravit.io --><svg xmlns="http://www.w3.org/2000/svg" xmlns:xlink="http://www.w3.org/1999/xlink" style="isolation:isolate" viewBox="325.044 515.65 24.092 24.092" width="24.092" height="24.092"><g><rect x="325.044" y="515.65" width="24.092" height="24.092" transform="matrix(1,0,0,1,0,0)" fill="none"/><path d=" M 340.057 528.788 C 341.256 529.245 342.316 530.006 343.132 530.996 C 343.536 531.487 343.874 532.028 344.138 532.606 C 344.406 533.19 344.846 535.027 344.954 535.666 L 343.709 535.666 C 343.569 534.967 343.055 533.073 342.681 532.466 C 342.32 531.877 341.862 531.352 341.326 530.915 C 340.79 530.479 340.184 530.135 339.535 529.899 C 338.867 529.656 338.162 529.533 337.451 529.536 C 336.889 529.536 336.346 529.609 335.823 529.756 C 335.31 529.898 334.817 530.106 334.357 530.374 C 333.448 530.906 332.691 531.663 332.159 532.572 C 331.891 533.032 331.683 533.524 331.541 534.037 C 331.394 534.56 331.321 535.104 331.321 535.666 L 330.094 535.666 C 330.094 534.899 330.207 534.162 330.434 533.453 C 330.88 532.045 331.738 530.804 332.897 529.889 C 333.484 529.421 334.142 529.049 334.846 528.787 C 334.124 528.314 333.561 527.721 333.155 527.005 C 332.749 526.29 332.546 525.499 332.546 524.631 C 332.546 523.954 332.674 523.317 332.93 522.72 C 333.176 522.137 333.532 521.606 333.979 521.158 C 334.427 520.712 334.957 520.356 335.54 520.109 C 336.144 519.852 336.794 519.722 337.451 519.726 C 338.128 519.726 338.765 519.854 339.362 520.109 C 339.945 520.355 340.476 520.711 340.924 521.158 C 341.37 521.607 341.726 522.137 341.973 522.72 C 342.23 523.324 342.36 523.974 342.356 524.631 C 342.356 526.32 341.488 527.891 340.057 528.788 L 340.057 528.788 Z  M 333.773 524.631 C 333.773 525.142 333.869 525.619 334.06 526.063 C 334.437 526.944 335.138 527.645 336.019 528.022 C 336.463 528.213 336.94 528.309 337.452 528.309 C 337.956 528.309 338.431 528.213 338.878 528.022 C 339.762 527.648 340.466 526.946 340.842 526.063 C 341.035 525.61 341.133 525.123 341.13 524.63 C 341.132 524.14 341.035 523.655 340.843 523.204 C 340.657 522.765 340.389 522.367 340.052 522.03 C 339.715 521.694 339.317 521.425 338.879 521.24 C 338.428 521.047 337.942 520.95 337.451 520.952 C 336.94 520.952 336.463 521.048 336.019 521.239 C 335.136 521.615 334.433 522.319 334.06 523.203 C 333.868 523.654 333.77 524.14 333.773 524.631 Z " fill-rule="evenodd" fill="rgb(191,191,191)"/></g></svg>