<?xml version="1.0" standalone="no"?><!-- Generator: Gravit.io --><svg xmlns="http://www.w3.org/2000/svg" xmlns:xlink="http://www.w3.org/1999/xlink" style="isolation:isolate" viewBox="157.009 629.886 16 16" width="16" height="16"><path d=" M 163.618 629.886 C 163.427 629.886 163.27 630.049 163.27 630.249 L 163.27 645.522 C 163.27 645.723 163.426 645.886 163.618 645.886 L 172.661 645.886 C 172.854 645.886 173.009 645.724 173.009 645.522 L 173.009 630.249 C 173.009 630.048 172.854 629.886 172.661 629.886 L 163.618 629.886 Z  M 160.14 631.34 C 159.948 631.34 159.792 631.504 159.792 631.704 L 159.792 644.067 C 159.792 644.268 159.948 644.431 160.14 644.431 L 162.574 644.431 L 162.574 631.34 L 160.14 631.34 Z  M 157.357 632.795 C 157.166 632.795 157.009 632.958 157.009 633.158 L 157.009 642.613 C 157.009 642.814 157.165 642.976 157.357 642.976 L 159.096 642.976 L 159.096 632.795 L 157.357 632.795 Z " fill="rgb(191,191,191)"/></svg>