<?xml version="1.0" standalone="no"?><!-- Generator: Gravit.io --><svg xmlns="http://www.w3.org/2000/svg" xmlns:xlink="http://www.w3.org/1999/xlink" style="isolation:isolate" viewBox="21.704 576.749 38.96 35.251" width="38.96" height="35.251"><path d=" M 25.414 576.749 C 23.385 576.749 21.704 578.43 21.704 580.458 L 21.704 597.15 C 21.718 598.968 23.041 600.51 24.835 600.802 L 24.544 602.308 C 24.132 604.292 25.399 606.308 27.383 606.712 L 52.828 611.929 C 54.84 612.323 56.798 611.034 57.231 609.03 L 60.594 592.688 C 60.989 590.675 59.7 588.717 57.695 588.283 L 55.087 587.762 L 55.087 580.458 C 55.087 578.43 53.407 576.749 51.378 576.749 L 25.414 576.749 Z  M 23.397 578.442 L 53.395 578.442 L 53.395 585.176 L 23.397 585.176 L 23.397 578.442 Z  M 23.369 586.869 L 53.395 586.869 L 53.395 599.167 L 23.397 599.167 L 23.369 586.869 Z  M 55.087 589.569 L 59.253 590.494 L 58.5 596.161 L 55.087 595.353 L 55.087 589.569 Z  M 55.181 597.996 L 57.883 598.154 L 55.087 610.278 L 25.796 605.077 L 26.585 600.859 L 51.378 600.859 C 52.732 600.859 54.535 599.105 55.181 597.996 Z " fill="rgb(127,229,255)"/></svg>