<?xml version="1.0" standalone="no"?><!-- Generator: Gravit.io --><svg xmlns="http://www.w3.org/2000/svg" xmlns:xlink="http://www.w3.org/1999/xlink" style="isolation:isolate" viewBox="0 0 64 64" width="64" height="64"><path d=" M 62.696 50.911 L 37.58 7.421 C 34.508 2.102 29.493 2.102 26.422 7.421 L 1.31 50.911 C -1.761 56.228 0.756 60.568 6.892 60.568 L 57.114 60.568 C 63.25 60.568 65.755 56.228 62.694 50.911 L 62.696 50.911 Z  M 28.547 19.761 C 29.453 18.787 30.595 18.297 32.001 18.297 C 33.407 18.297 34.548 18.777 35.455 19.741 C 36.341 20.697 36.801 21.909 36.801 23.362 C 36.801 24.601 34.928 33.771 34.303 40.432 L 29.786 40.432 C 29.241 33.771 27.201 24.598 27.201 23.362 C 27.201 21.926 27.66 20.727 28.549 19.761 L 28.547 19.761 Z  M 35.385 51.465 C 34.49 52.363 33.271 52.863 32.003 52.851 C 30.697 52.851 29.563 52.384 28.619 51.465 C 27.697 50.596 27.183 49.379 27.203 48.111 C 27.203 46.803 27.673 45.671 28.619 44.725 C 29.504 43.807 30.728 43.295 32.003 43.311 C 33.309 43.311 34.443 43.778 35.387 44.725 C 36.336 45.674 36.803 46.803 36.803 48.111 C 36.803 49.427 36.334 50.539 35.387 51.465 L 35.385 51.465 Z " fill="rgb(255,255,255)"/></svg>